<mxfile host="app.diagrams.net" modified="2024-05-28T10:25:23.687Z" agent="Mozilla/5.0 (X11; Linux x86_64) AppleWebKit/537.36 (KHTML, like Gecko) Chrome/125.0.0.0 Safari/537.36" etag="iFPhqGgLyRu_tUQ9m7v4" version="24.4.9" type="github" pages="2">
  <diagram name="Page-1" id="25475Ag9I6rP-FygwqkR">
    <mxGraphModel dx="1302" dy="735" grid="1" gridSize="10" guides="1" tooltips="1" connect="1" arrows="1" fold="1" page="1" pageScale="1" pageWidth="827" pageHeight="1169" math="0" shadow="0">
      <root>
        <mxCell id="0" />
        <mxCell id="1" parent="0" />
        <mxCell id="KI5rZv7yZ5VrHrgTFvRD-19" value="" style="rounded=0;whiteSpace=wrap;html=1;fillColor=none;" vertex="1" parent="1">
          <mxGeometry x="318" y="581" width="262" height="199" as="geometry" />
        </mxCell>
        <mxCell id="KI5rZv7yZ5VrHrgTFvRD-3" value="Dataset&lt;div&gt;&amp;nbsp;without&amp;nbsp;&lt;/div&gt;&lt;div&gt;lables&lt;/div&gt;" style="shape=cylinder3;whiteSpace=wrap;html=1;boundedLbl=1;backgroundOutline=1;size=15;fillColor=#d5e8d4;strokeColor=#82b366;" vertex="1" parent="1">
          <mxGeometry x="40" y="180.16" width="60" height="80" as="geometry" />
        </mxCell>
        <mxCell id="KI5rZv7yZ5VrHrgTFvRD-7" value="ResNet&lt;div&gt;Backbone&lt;/div&gt;" style="shape=trapezoid;perimeter=trapezoidPerimeter;whiteSpace=wrap;html=1;fixedSize=1;direction=south;fillColor=#fff2cc;strokeColor=#d6b656;" vertex="1" parent="1">
          <mxGeometry x="360" y="350" width="60" height="140" as="geometry" />
        </mxCell>
        <mxCell id="KI5rZv7yZ5VrHrgTFvRD-8" value="" style="shape=trapezoid;perimeter=trapezoidPerimeter;whiteSpace=wrap;html=1;fixedSize=1;direction=south;fillColor=#dae8fc;strokeColor=#6c8ebf;" vertex="1" parent="1">
          <mxGeometry x="430" y="380" width="40" height="80" as="geometry" />
        </mxCell>
        <mxCell id="KI5rZv7yZ5VrHrgTFvRD-10" value="" style="endArrow=classic;html=1;rounded=0;" edge="1" parent="1">
          <mxGeometry width="50" height="50" relative="1" as="geometry">
            <mxPoint x="390" y="320" as="sourcePoint" />
            <mxPoint x="390" y="350" as="targetPoint" />
          </mxGeometry>
        </mxCell>
        <mxCell id="KI5rZv7yZ5VrHrgTFvRD-13" value="ResNet&lt;div&gt;Backbone&lt;/div&gt;" style="shape=trapezoid;perimeter=trapezoidPerimeter;whiteSpace=wrap;html=1;fixedSize=1;direction=south;fillColor=#fff2cc;strokeColor=#d6b656;" vertex="1" parent="1">
          <mxGeometry x="359" y="609" width="60" height="140" as="geometry" />
        </mxCell>
        <mxCell id="KI5rZv7yZ5VrHrgTFvRD-14" value="" style="shape=trapezoid;perimeter=trapezoidPerimeter;whiteSpace=wrap;html=1;fixedSize=1;direction=south;fillColor=#d5e8d4;strokeColor=#82b366;" vertex="1" parent="1">
          <mxGeometry x="429" y="639" width="40" height="80" as="geometry" />
        </mxCell>
        <mxCell id="KI5rZv7yZ5VrHrgTFvRD-15" value="" style="rounded=0;whiteSpace=wrap;html=1;fillColor=#dae8fc;strokeColor=#6c8ebf;" vertex="1" parent="1">
          <mxGeometry x="520" y="600" width="20" height="60" as="geometry" />
        </mxCell>
        <mxCell id="KI5rZv7yZ5VrHrgTFvRD-16" value="" style="rounded=0;whiteSpace=wrap;html=1;fillColor=#e1d5e7;strokeColor=#9673a6;" vertex="1" parent="1">
          <mxGeometry x="520" y="678" width="20" height="90" as="geometry" />
        </mxCell>
        <mxCell id="KI5rZv7yZ5VrHrgTFvRD-17" value="" style="endArrow=classic;html=1;rounded=0;" edge="1" parent="1">
          <mxGeometry width="50" height="50" relative="1" as="geometry">
            <mxPoint x="480" y="670" as="sourcePoint" />
            <mxPoint x="510" y="640" as="targetPoint" />
          </mxGeometry>
        </mxCell>
        <mxCell id="KI5rZv7yZ5VrHrgTFvRD-18" value="" style="endArrow=classic;html=1;rounded=0;" edge="1" parent="1">
          <mxGeometry width="50" height="50" relative="1" as="geometry">
            <mxPoint x="480" y="690" as="sourcePoint" />
            <mxPoint x="510" y="710" as="targetPoint" />
          </mxGeometry>
        </mxCell>
        <mxCell id="KI5rZv7yZ5VrHrgTFvRD-20" value="&lt;font style=&quot;font-size: 10px;&quot;&gt;CLS&lt;/font&gt;" style="text;html=1;align=center;verticalAlign=middle;whiteSpace=wrap;rounded=0;" vertex="1" parent="1">
          <mxGeometry x="500" y="579" width="60" height="30" as="geometry" />
        </mxCell>
        <mxCell id="KI5rZv7yZ5VrHrgTFvRD-21" value="&lt;font style=&quot;font-size: 10px;&quot;&gt;BBOX&lt;/font&gt;" style="text;html=1;align=center;verticalAlign=middle;whiteSpace=wrap;rounded=0;" vertex="1" parent="1">
          <mxGeometry x="499" y="657" width="60" height="30" as="geometry" />
        </mxCell>
        <mxCell id="KI5rZv7yZ5VrHrgTFvRD-22" value="" style="endArrow=classic;html=1;rounded=0;" edge="1" parent="1">
          <mxGeometry width="50" height="50" relative="1" as="geometry">
            <mxPoint x="390" y="500" as="sourcePoint" />
            <mxPoint x="390" y="560" as="targetPoint" />
          </mxGeometry>
        </mxCell>
        <mxCell id="KI5rZv7yZ5VrHrgTFvRD-23" value="Dataset" style="shape=cylinder3;whiteSpace=wrap;html=1;boundedLbl=1;backgroundOutline=1;size=15;fillColor=#d5e8d4;strokeColor=#82b366;" vertex="1" parent="1">
          <mxGeometry x="40" y="640.5" width="60" height="80" as="geometry" />
        </mxCell>
        <mxCell id="KI5rZv7yZ5VrHrgTFvRD-24" value="" style="shape=image;html=1;verticalAlign=top;verticalLabelPosition=bottom;labelBackgroundColor=#ffffff;imageAspect=0;aspect=fixed;image=https://cdn4.iconfinder.com/data/icons/48-bubbles/48/12.File-128.png" vertex="1" parent="1">
          <mxGeometry x="113" y="638" width="82" height="82" as="geometry" />
        </mxCell>
        <mxCell id="KI5rZv7yZ5VrHrgTFvRD-26" value="annotations" style="text;html=1;align=center;verticalAlign=middle;whiteSpace=wrap;rounded=0;fontSize=8;" vertex="1" parent="1">
          <mxGeometry x="124" y="650.5" width="60" height="30" as="geometry" />
        </mxCell>
        <mxCell id="KI5rZv7yZ5VrHrgTFvRD-27" value="" style="endArrow=classic;html=1;rounded=0;" edge="1" parent="1">
          <mxGeometry width="50" height="50" relative="1" as="geometry">
            <mxPoint x="210" y="680.5" as="sourcePoint" />
            <mxPoint x="280" y="681" as="targetPoint" />
          </mxGeometry>
        </mxCell>
        <mxCell id="KI5rZv7yZ5VrHrgTFvRD-28" value="Pre-text task&lt;div&gt;&lt;span style=&quot;background-color: initial;&quot;&gt;&amp;nbsp;evaluation&lt;/span&gt;&lt;br&gt;&lt;/div&gt;&lt;div&gt;&lt;span style=&quot;background-color: initial;&quot;&gt;&lt;br&gt;&lt;/span&gt;&lt;/div&gt;&lt;div&gt;- KNN&lt;/div&gt;&lt;div&gt;- Linear&lt;/div&gt;&lt;div&gt;-MLP&lt;/div&gt;&lt;div&gt;-Fill fine-tuning&lt;/div&gt;" style="whiteSpace=wrap;html=1;aspect=fixed;fillColor=none;" vertex="1" parent="1">
          <mxGeometry x="600" y="360" width="120" height="120" as="geometry" />
        </mxCell>
        <mxCell id="KI5rZv7yZ5VrHrgTFvRD-29" value="" style="endArrow=classic;html=1;rounded=0;" edge="1" parent="1">
          <mxGeometry width="50" height="50" relative="1" as="geometry">
            <mxPoint x="520" y="420" as="sourcePoint" />
            <mxPoint x="570" y="420" as="targetPoint" />
          </mxGeometry>
        </mxCell>
        <mxCell id="KI5rZv7yZ5VrHrgTFvRD-30" value="Target task&lt;div&gt;&lt;span style=&quot;background-color: initial;&quot;&gt;Object detection&lt;/span&gt;&lt;/div&gt;&lt;div&gt;evaluation&lt;span style=&quot;background-color: initial;&quot;&gt;&lt;br&gt;&lt;/span&gt;&lt;/div&gt;&lt;div&gt;&lt;span style=&quot;background-color: initial;&quot;&gt;&lt;br&gt;&lt;/span&gt;&lt;/div&gt;&lt;div&gt;- F1 score&lt;/div&gt;&lt;div&gt;- Precision&lt;/div&gt;&lt;div&gt;- Recall&lt;/div&gt;&lt;div&gt;- Accuracy&lt;/div&gt;" style="whiteSpace=wrap;html=1;aspect=fixed;fillColor=none;" vertex="1" parent="1">
          <mxGeometry x="680" y="619" width="120" height="120" as="geometry" />
        </mxCell>
        <mxCell id="KI5rZv7yZ5VrHrgTFvRD-31" value="" style="endArrow=classic;html=1;rounded=0;" edge="1" parent="1">
          <mxGeometry width="50" height="50" relative="1" as="geometry">
            <mxPoint x="610" y="680.5" as="sourcePoint" />
            <mxPoint x="660" y="680.5" as="targetPoint" />
          </mxGeometry>
        </mxCell>
        <mxCell id="QOUv2SC_PjCSyyOejCVx-1" value="FasterRCNN / RetinaNet&amp;nbsp;" style="text;html=1;align=center;verticalAlign=middle;resizable=0;points=[];autosize=1;strokeColor=none;fillColor=none;" vertex="1" parent="1">
          <mxGeometry x="360" y="778" width="160" height="30" as="geometry" />
        </mxCell>
        <mxCell id="wNvfzdu4W4gnSjIsRXZU-1" value="&lt;font style=&quot;font-size: 14px;&quot;&gt;Teacher&lt;/font&gt;" style="rounded=0;whiteSpace=wrap;html=1;fillColor=#e1d5e7;strokeColor=#9673a6;" vertex="1" parent="1">
          <mxGeometry x="320.25" y="130" width="120" height="60" as="geometry" />
        </mxCell>
        <mxCell id="wNvfzdu4W4gnSjIsRXZU-2" value="&lt;font style=&quot;font-size: 14px;&quot;&gt;Student&lt;/font&gt;" style="rounded=0;whiteSpace=wrap;html=1;fillColor=#fff2cc;strokeColor=#d6b656;" vertex="1" parent="1">
          <mxGeometry x="320.25" y="240" width="120" height="60" as="geometry" />
        </mxCell>
        <mxCell id="wNvfzdu4W4gnSjIsRXZU-3" value="&lt;font style=&quot;font-size: 14px;&quot;&gt;Logits&lt;/font&gt;" style="rounded=0;whiteSpace=wrap;html=1;fillColor=#f5f5f5;fontColor=#333333;strokeColor=#666666;" vertex="1" parent="1">
          <mxGeometry x="499.25" y="140" width="112" height="40" as="geometry" />
        </mxCell>
        <mxCell id="wNvfzdu4W4gnSjIsRXZU-4" value="&lt;font style=&quot;font-size: 14px;&quot;&gt;Logits&lt;/font&gt;" style="rounded=0;whiteSpace=wrap;html=1;fillColor=#f5f5f5;fontColor=#333333;strokeColor=#666666;" vertex="1" parent="1">
          <mxGeometry x="499.25" y="250" width="112" height="40" as="geometry" />
        </mxCell>
        <mxCell id="wNvfzdu4W4gnSjIsRXZU-9" value="&lt;font style=&quot;font-size: 14px;&quot;&gt;Loss&lt;/font&gt;" style="rounded=0;whiteSpace=wrap;html=1;fillColor=#fad7ac;strokeColor=#b46504;" vertex="1" parent="1">
          <mxGeometry x="671.25" y="200.32" width="80" height="39.68" as="geometry" />
        </mxCell>
        <mxCell id="wNvfzdu4W4gnSjIsRXZU-10" value="" style="edgeStyle=elbowEdgeStyle;elbow=horizontal;endArrow=classic;html=1;curved=0;rounded=0;endSize=8;startSize=8;entryX=0;entryY=0.5;entryDx=0;entryDy=0;" edge="1" parent="1">
          <mxGeometry width="50" height="50" relative="1" as="geometry">
            <mxPoint x="120" y="220" as="sourcePoint" />
            <mxPoint x="320.25" y="160" as="targetPoint" />
          </mxGeometry>
        </mxCell>
        <mxCell id="wNvfzdu4W4gnSjIsRXZU-12" value="" style="edgeStyle=elbowEdgeStyle;elbow=horizontal;endArrow=classic;html=1;curved=0;rounded=0;endSize=8;startSize=8;entryX=0;entryY=0.5;entryDx=0;entryDy=0;" edge="1" parent="1" target="wNvfzdu4W4gnSjIsRXZU-2">
          <mxGeometry width="50" height="50" relative="1" as="geometry">
            <mxPoint x="120" y="220" as="sourcePoint" />
            <mxPoint x="320.25" y="160" as="targetPoint" />
          </mxGeometry>
        </mxCell>
        <mxCell id="wNvfzdu4W4gnSjIsRXZU-13" value="" style="endArrow=classic;html=1;rounded=0;entryX=0;entryY=0.5;entryDx=0;entryDy=0;" edge="1" parent="1" target="wNvfzdu4W4gnSjIsRXZU-3">
          <mxGeometry width="50" height="50" relative="1" as="geometry">
            <mxPoint x="440.25" y="160" as="sourcePoint" />
            <mxPoint x="490.25" y="110" as="targetPoint" />
          </mxGeometry>
        </mxCell>
        <mxCell id="wNvfzdu4W4gnSjIsRXZU-14" value="" style="endArrow=classic;html=1;rounded=0;entryX=0;entryY=0.5;entryDx=0;entryDy=0;" edge="1" parent="1">
          <mxGeometry width="50" height="50" relative="1" as="geometry">
            <mxPoint x="440.25" y="269.8" as="sourcePoint" />
            <mxPoint x="499.25" y="269.8" as="targetPoint" />
          </mxGeometry>
        </mxCell>
        <mxCell id="wNvfzdu4W4gnSjIsRXZU-15" value="" style="edgeStyle=segmentEdgeStyle;endArrow=classic;html=1;curved=0;rounded=0;endSize=8;startSize=8;" edge="1" parent="1">
          <mxGeometry width="50" height="50" relative="1" as="geometry">
            <mxPoint x="613.25" y="270" as="sourcePoint" />
            <mxPoint x="713.25" y="240" as="targetPoint" />
            <Array as="points">
              <mxPoint x="663.25" y="270" />
              <mxPoint x="713.25" y="270" />
            </Array>
          </mxGeometry>
        </mxCell>
        <mxCell id="wNvfzdu4W4gnSjIsRXZU-16" value="" style="edgeStyle=segmentEdgeStyle;endArrow=classic;html=1;curved=0;rounded=0;endSize=8;startSize=8;exitX=1;exitY=0.5;exitDx=0;exitDy=0;" edge="1" parent="1" source="wNvfzdu4W4gnSjIsRXZU-3">
          <mxGeometry width="50" height="50" relative="1" as="geometry">
            <mxPoint x="633.25" y="160" as="sourcePoint" />
            <mxPoint x="713.25" y="200" as="targetPoint" />
            <Array as="points">
              <mxPoint x="713.25" y="160" />
            </Array>
          </mxGeometry>
        </mxCell>
      </root>
    </mxGraphModel>
  </diagram>
  <diagram id="w2xyD3ZfquOU5yvlqHLH" name="Page-2">
    <mxGraphModel dx="1562" dy="882" grid="1" gridSize="10" guides="1" tooltips="1" connect="1" arrows="1" fold="1" page="1" pageScale="1" pageWidth="827" pageHeight="1169" math="0" shadow="0">
      <root>
        <mxCell id="0" />
        <mxCell id="1" parent="0" />
        <mxCell id="hlimM6l5dyAwngFtbMl4-17" value="" style="rounded=0;whiteSpace=wrap;html=1;fillColor=none;dashed=1;dashPattern=8 8;" vertex="1" parent="1">
          <mxGeometry x="20" y="144" width="560" height="496" as="geometry" />
        </mxCell>
        <mxCell id="LHJa0OPbV8pE64O7NCUb-16" value="" style="rounded=0;whiteSpace=wrap;html=1;fillColor=none;" vertex="1" parent="1">
          <mxGeometry x="308" y="282" width="262" height="199" as="geometry" />
        </mxCell>
        <mxCell id="LHJa0OPbV8pE64O7NCUb-17" value="ResNet&lt;div&gt;Backbone&lt;/div&gt;" style="shape=trapezoid;perimeter=trapezoidPerimeter;whiteSpace=wrap;html=1;fixedSize=1;direction=south;fillColor=#fff2cc;strokeColor=#d6b656;" vertex="1" parent="1">
          <mxGeometry x="349" y="310" width="60" height="140" as="geometry" />
        </mxCell>
        <mxCell id="LHJa0OPbV8pE64O7NCUb-18" value="" style="shape=trapezoid;perimeter=trapezoidPerimeter;whiteSpace=wrap;html=1;fixedSize=1;direction=south;fillColor=#d5e8d4;strokeColor=#82b366;" vertex="1" parent="1">
          <mxGeometry x="419" y="340" width="40" height="80" as="geometry" />
        </mxCell>
        <mxCell id="LHJa0OPbV8pE64O7NCUb-19" value="" style="rounded=0;whiteSpace=wrap;html=1;fillColor=#dae8fc;strokeColor=#6c8ebf;" vertex="1" parent="1">
          <mxGeometry x="510" y="301" width="20" height="60" as="geometry" />
        </mxCell>
        <mxCell id="LHJa0OPbV8pE64O7NCUb-20" value="" style="rounded=0;whiteSpace=wrap;html=1;fillColor=#e1d5e7;strokeColor=#9673a6;" vertex="1" parent="1">
          <mxGeometry x="510" y="379" width="20" height="90" as="geometry" />
        </mxCell>
        <mxCell id="LHJa0OPbV8pE64O7NCUb-21" value="" style="endArrow=classic;html=1;rounded=0;" edge="1" parent="1">
          <mxGeometry width="50" height="50" relative="1" as="geometry">
            <mxPoint x="470" y="371" as="sourcePoint" />
            <mxPoint x="500" y="341" as="targetPoint" />
          </mxGeometry>
        </mxCell>
        <mxCell id="LHJa0OPbV8pE64O7NCUb-22" value="" style="endArrow=classic;html=1;rounded=0;" edge="1" parent="1">
          <mxGeometry width="50" height="50" relative="1" as="geometry">
            <mxPoint x="470" y="391" as="sourcePoint" />
            <mxPoint x="500" y="411" as="targetPoint" />
          </mxGeometry>
        </mxCell>
        <mxCell id="LHJa0OPbV8pE64O7NCUb-23" value="CLS" style="text;html=1;align=center;verticalAlign=middle;whiteSpace=wrap;rounded=0;" vertex="1" parent="1">
          <mxGeometry x="490" y="280" width="60" height="30" as="geometry" />
        </mxCell>
        <mxCell id="LHJa0OPbV8pE64O7NCUb-24" value="BBOX" style="text;html=1;align=center;verticalAlign=middle;whiteSpace=wrap;rounded=0;" vertex="1" parent="1">
          <mxGeometry x="489" y="358" width="60" height="30" as="geometry" />
        </mxCell>
        <mxCell id="LHJa0OPbV8pE64O7NCUb-25" value="Dataset" style="shape=cylinder3;whiteSpace=wrap;html=1;boundedLbl=1;backgroundOutline=1;size=15;fillColor=#d5e8d4;strokeColor=#82b366;" vertex="1" parent="1">
          <mxGeometry x="50" y="192.5" width="60" height="80" as="geometry" />
        </mxCell>
        <mxCell id="LHJa0OPbV8pE64O7NCUb-26" value="" style="shape=image;html=1;verticalAlign=top;verticalLabelPosition=bottom;labelBackgroundColor=#ffffff;imageAspect=0;aspect=fixed;image=https://cdn4.iconfinder.com/data/icons/48-bubbles/48/12.File-128.png" vertex="1" parent="1">
          <mxGeometry x="123" y="190" width="82" height="82" as="geometry" />
        </mxCell>
        <mxCell id="LHJa0OPbV8pE64O7NCUb-27" value="annotations" style="text;html=1;align=center;verticalAlign=middle;whiteSpace=wrap;rounded=0;fontSize=8;" vertex="1" parent="1">
          <mxGeometry x="134" y="202.5" width="60" height="30" as="geometry" />
        </mxCell>
        <mxCell id="LHJa0OPbV8pE64O7NCUb-28" value="" style="endArrow=classic;html=1;rounded=0;" edge="1" parent="1">
          <mxGeometry width="50" height="50" relative="1" as="geometry">
            <mxPoint x="220" y="282" as="sourcePoint" />
            <mxPoint x="285" y="322" as="targetPoint" />
          </mxGeometry>
        </mxCell>
        <mxCell id="LHJa0OPbV8pE64O7NCUb-29" value="Target task&lt;div&gt;&lt;br&gt;&lt;div&gt;&lt;span style=&quot;background-color: initial;&quot;&gt;Object detection model evaluation&lt;/span&gt;&lt;/div&gt;&lt;div&gt;&lt;span style=&quot;background-color: initial;&quot;&gt;&lt;br&gt;&lt;/span&gt;&lt;/div&gt;&lt;div&gt;- F1 score&lt;/div&gt;&lt;div&gt;- Precision&lt;/div&gt;&lt;div&gt;- Recall&lt;/div&gt;&lt;div&gt;- Accuracy&lt;/div&gt;&lt;/div&gt;" style="whiteSpace=wrap;html=1;aspect=fixed;fillColor=none;" vertex="1" parent="1">
          <mxGeometry x="660" y="310" width="140" height="140" as="geometry" />
        </mxCell>
        <mxCell id="LHJa0OPbV8pE64O7NCUb-30" value="" style="endArrow=classic;html=1;rounded=0;" edge="1" parent="1">
          <mxGeometry width="50" height="50" relative="1" as="geometry">
            <mxPoint x="600" y="381.5" as="sourcePoint" />
            <mxPoint x="650" y="381.5" as="targetPoint" />
          </mxGeometry>
        </mxCell>
        <mxCell id="hlimM6l5dyAwngFtbMl4-1" value="FasterRCNN / RetinaNet&amp;nbsp;" style="text;html=1;align=center;verticalAlign=middle;resizable=0;points=[];autosize=1;strokeColor=none;fillColor=none;" vertex="1" parent="1">
          <mxGeometry x="359" y="490" width="160" height="30" as="geometry" />
        </mxCell>
        <mxCell id="hlimM6l5dyAwngFtbMl4-2" value="Dataset" style="shape=cylinder3;whiteSpace=wrap;html=1;boundedLbl=1;backgroundOutline=1;size=15;fillColor=#d5e8d4;strokeColor=#82b366;" vertex="1" parent="1">
          <mxGeometry x="47" y="380" width="60" height="58.5" as="geometry" />
        </mxCell>
        <mxCell id="hlimM6l5dyAwngFtbMl4-3" value="" style="shape=image;html=1;verticalAlign=top;verticalLabelPosition=bottom;labelBackgroundColor=#ffffff;imageAspect=0;aspect=fixed;image=https://cdn4.iconfinder.com/data/icons/48-bubbles/48/12.File-128.png" vertex="1" parent="1">
          <mxGeometry x="120" y="356" width="82" height="82" as="geometry" />
        </mxCell>
        <mxCell id="hlimM6l5dyAwngFtbMl4-4" value="annotations" style="text;html=1;align=center;verticalAlign=middle;whiteSpace=wrap;rounded=0;fontSize=8;" vertex="1" parent="1">
          <mxGeometry x="131" y="368.5" width="60" height="30" as="geometry" />
        </mxCell>
        <mxCell id="hlimM6l5dyAwngFtbMl4-5" value="Dataset" style="shape=cylinder3;whiteSpace=wrap;html=1;boundedLbl=1;backgroundOutline=1;size=15;fillColor=#d5e8d4;strokeColor=#82b366;" vertex="1" parent="1">
          <mxGeometry x="50" y="551" width="60" height="43.5" as="geometry" />
        </mxCell>
        <mxCell id="hlimM6l5dyAwngFtbMl4-6" value="" style="shape=image;html=1;verticalAlign=top;verticalLabelPosition=bottom;labelBackgroundColor=#ffffff;imageAspect=0;aspect=fixed;image=https://cdn4.iconfinder.com/data/icons/48-bubbles/48/12.File-128.png" vertex="1" parent="1">
          <mxGeometry x="123" y="512" width="82" height="82" as="geometry" />
        </mxCell>
        <mxCell id="hlimM6l5dyAwngFtbMl4-7" value="annotations" style="text;html=1;align=center;verticalAlign=middle;whiteSpace=wrap;rounded=0;fontSize=8;" vertex="1" parent="1">
          <mxGeometry x="134" y="524.5" width="60" height="30" as="geometry" />
        </mxCell>
        <mxCell id="hlimM6l5dyAwngFtbMl4-8" value="" style="endArrow=classic;html=1;rounded=0;" edge="1" parent="1">
          <mxGeometry width="50" height="50" relative="1" as="geometry">
            <mxPoint x="220" y="400" as="sourcePoint" />
            <mxPoint x="285" y="400" as="targetPoint" />
          </mxGeometry>
        </mxCell>
        <mxCell id="hlimM6l5dyAwngFtbMl4-9" value="" style="endArrow=classic;html=1;rounded=0;" edge="1" parent="1">
          <mxGeometry width="50" height="50" relative="1" as="geometry">
            <mxPoint x="220" y="520" as="sourcePoint" />
            <mxPoint x="280" y="480" as="targetPoint" />
          </mxGeometry>
        </mxCell>
        <mxCell id="hlimM6l5dyAwngFtbMl4-10" value="Dataset with 100% labels" style="text;html=1;align=center;verticalAlign=middle;whiteSpace=wrap;rounded=0;" vertex="1" parent="1">
          <mxGeometry x="40" y="162.5" width="170" height="30" as="geometry" />
        </mxCell>
        <mxCell id="hlimM6l5dyAwngFtbMl4-12" value="Dataset with 50% labels" style="text;html=1;align=center;verticalAlign=middle;whiteSpace=wrap;rounded=0;" vertex="1" parent="1">
          <mxGeometry x="32" y="328" width="170" height="30" as="geometry" />
        </mxCell>
        <mxCell id="hlimM6l5dyAwngFtbMl4-14" value="Dataset with 10% labels" style="text;html=1;align=center;verticalAlign=middle;whiteSpace=wrap;rounded=0;" vertex="1" parent="1">
          <mxGeometry x="24" y="482" width="170" height="30" as="geometry" />
        </mxCell>
        <mxCell id="hlimM6l5dyAwngFtbMl4-18" value="" style="shape=image;verticalLabelPosition=bottom;labelBackgroundColor=default;verticalAlign=top;aspect=fixed;imageAspect=0;image=data:image/png,iVBORw0KGgoAAAANSUhEUgAAAgAAAAIACAYAAAD0eNT6AAAAAXNSR0IArs4c6QAAIABJREFUeAHtnQu4BlVV9/9cRBAVFBFQ0BBvKYJgIhfxCyMj74qWVJIKBJoXPq2kRMRSAzXlUwO18hakZJi3MoEMxbyAKKEi5jUS0TAuinIR6HsXnpfOObyXmVl7z1575jfPc55zzvvO3rP2b6291n/ed2aPxAYBCGwraS9JB0p6nqTjJL1L0pmSLpR0laT/4QcGxAAx0CAGbpB0iaRzJX1A0kmSXirpEEkHSNplkmM2Je1CAALlCOwq6RhJn28woSn+CCBigBhIGQNXSzpN0sGStiqXBjkyBMZBYGNJ+0k6QdK3KPqcyREDxECQGLBPDM6SdKSkHceRjhklBPohsL2kt0i6PMhkT3kWQV+clRIDw4uBCyT9jqSN+kmRHAUCwyOwhaQ/lfQTCj9nesQAMVBhDHxF0hOGl5oZEQTyEdhk5aO0H1Q44TmbG97ZHD7Fp94YOFvSnvlSJj1DoH4CG0g6aHJRzTcp/JztEQPEwABj4O8k3af+VM0IIJCWwA6T22s+M8AJ7z1zoD1nn8TAsGLgp5PUeawkO+Fhg8DoCewt6XsUf874iAFiYEQx8D5Jm48++wNg1ASeKem6EU16zuaGdTaHP/GnJwbOl3TPUVcABj9KAnZ7zOsp/JzxEQPEwMhj4PuS9hllFWDQoySw5WTZ3o+OfNJ7zhpoy1knMTCsGLBPQZ81ymrAoEdFYLvJlf5fpfhz1kcMEAPEwK1i4BWjqgYMdlQE7OEZn2XS32rSczY3rLM5/Ik/PTFgDxxig8DgCJxM8af4EwPEADGwMAaul7Tv4LI/Axo1gaOY9AsnveeMgbaccRIDw4qBy3io0Kjr5aAG//jJs7RvRAAgAIgBYoAYaBwDX5R0h0FVAgYzOgI7S/oRk77xpOdMblhncvgTf3pi4EOSNhxd1WDAgyBwZ9b1p/Aj/ogBYsAVA8cNohowiNERYKEfzn48Zz+0JX6IAekGSQ8cXfVgwFUT2JElfl2qn8RH8SMGiIFpDHyw6mqA8aMjwC1/JK9p8uI3sUAM+GOAWwNHV0brHPBukm7iez8+ASAGiAFiIFkMfKrOcoDVYyNwOpM+2aTnzMl/5gRDGA4lBp48tmLCeOsisD/Fn+JPDBADxECWGLhI0sZ1lQSsHQuBDSSdx8TPMvGHcgbDODgbJwZ8MXD4WAoK46yLwN4Uf4o/MUAMEANZY+CCusoC1o6FwKuZ+FknPmdOvjMn+MFvKDFgt1mzQSAUga8hABAAxAAxQAxkj4EjQ2V+jBk9AVupaijqmnHgS2KAGIgcA2eNvuIAIBSBlyAAEEDEADFADPQSA7Y88FahKgDGjJrA55j4vUz8yGcl2MZZMzHQXwwcPOqKw+DDENiB4k/xJwaIAWKg1xg4LUwFwJBRE3guE7/Xic9ZVn9nWbCGddQYuFrSpqOuPAw+BIG3IQAQAMQAMUAM9B4Du4SoABgxagIfYeL3PvGjnpVgF2fMxEB/MXDAqCsPgw9B4PygAuBGSSdKeqKk7UOQwggIQKAGAptI2l3SYcGXNz+kBpjYOGwC3w8oAL4h6eHDxs7oIACBHgjYw3eOlWS33kX7dOOlPYyfQ0BgLgGbHDcFmxh2ccxOcy3mDQhAAALtCZgIiCYATmo/DFpAIB0B+2g92qR4drrh0RMEIACBmwnYyU60p51+AN9AoCSBhwYTANfyvOyS4cCxITBoAnZNQKQTnnMHTZvBhSfw+GAT4pzwxDAQAhColYBdGBhJAFxSK0jsHgaBQ4NNCFuTgA0CEIBADgJ2d0AkAWAXJrJBoBiBI4JNiDcXI8GBIQCBMRCIJADMFjYIFCOAACiGngNDAAIFCCAACkDnkDEJIABi+gWrIACBPAQQAHm40muFBBAAFToNkyEAgc4EEACd0dFwaAQQAEPzKOOBAAQWEUAALKLDe6MigAAYlbsZLARGTwABMPoQAMCUAAJgSoLfEIDAGAggAMbgZcbYiAACoBEmdoIABAZCAAEwEEcyDD8BBICfIT1AAAL1EEAA1OMrLM1MAAGQGTDdQwACoQggAEK5A2NKEkAAlKTPsSEAgb4JIAD6Js7xwhJAAIR1DYZBAAIZCCAAMkClyzoJIADq9BtWQwAC3QggALpxo9UACSAABuhUhgQBCMwlgACYi4Y3xkYAATA2jzNeCIybAAJg3P5n9KsIIABWweBPCEBg8AQQAIN3MQNsSgAB0JQU+0EAAkMggAAYghcZQxICCIAkGOkEAhCohAACoBJHYWZ+AgiA/Iw5AgQgEIcAAiCOL7CkMAEEQGEHcHgIQKBXAgiAXnFzsMgEEACRvYNtEIBAagIIgNRE6a9aAgiAal2H4RCAQAcCCIAO0GgyTAIIgGH6lVFBAAKzCSAAZnPh1RESQACM0OkMGQIjJoAAGLHzGfpaAgiAtTz4DwIQGDYBBMCw/cvoWhBAALSAxa4QgED1BBAA1buQAaQigABIRZJ+IACBGgggAGrwEjb2QgAB0AtmDgIBCAQhgAAI4gjMKE8AAVDeB1gAAQj0RwAB0B9rjhScAAIguIMwDwIQSEoAAZAUJ53VTAABULP3sB0CEGhLAAHQlhj7D5YAAmCwrmVgEIDADAIIgBlQeGmcBBAA4/Q7o4bAWAkgAMbqecZ9KwIIgFsh4QUIQGDABBAAA3YuQ2tHAAHQjhd7QwACdRNAANTtP6xPSAABkBAmXUEAAuEJIADCu2hYBm4maSdJe0jaM9jP8ZIiTYj3BeMTzV/YE28O5fCJ5QrLGZY72NISiJTvzBa2yglsIml/Sc+V9CpJ75B0uqQvS7oiWIGNFvzYE0uA4Y94/rAcYrnEcorlFssxlmss51juYWtHIFqMt7OevUMQ2ELS0yS9R9JVFPlQnyJEm+DYE6+oDsUnlnssB1kuspzEtpxANN8vt5g9QhDYXtJzVpT49RR9ij4xQAwEigHLSfYpgeUoy1VsswkgAGZz4dU5BHaXdEagiR4tgLGHM1xiIF4MWM6y3MW2lkC0WF1rHf+FIbCjpFMk3UTx50yPGCAGKowBy12Ww34uTFYtbwgCoLwPQltwZ0mvk3RdhRM+WnBjT7wzQ3wyPp9YLrOcZrlt7Fu0+B+7P8KMf1NJL+bKfc70EH7EwEBjwO4osBxnuW6sGwJgrJ5fMO77Tq6kvWigkz5awGPP+M5A8Xksn1uus5w3xi1aLI7RB6HG/CjO+jnjQ/wRAyOLAfs0wHLf2DYEwNg8vmC8L5B0w8gmfrQJgD2xzg7xx3j8YbnPcuCYtmjxPSb2YcZ6G0l/QeHnrI8YIAaIgZtzoeXEMWwIgDF4ecEYt5b0CSY9iZ8YIAaIgVtiwHKi5cahbwiAoXt4wfgswL/OpL9l0kebDNgzno+f8XU8X1tuHLoIiBZ3C8oVb6UkYB9xceYfL+lEm5DYQ4yMOQYsRw7564Bovk1Z4+hrAQG+8yexR5v82ENMRowBy5VD3aLxHirnUOOyK12jOR578AkxQAxEjYGh3h0QjXeoQjlEY+xeV271I9FGm/jYQ0xGjgHLmUNcJyAa8yHW3DBjstWubMGLaE7HHnxCDBAD0WPAcufQVgyMxjxMsRyaIbbeNcv7kmSjTXjsISZrigHLoUN6dkA09kOru2HGYw+9iOZs7MEnxAAxUFsMWC4dyhaN/VC4hhqHPfaSj/5JtNEmO/YQkzXGgOXSoTxKOBr/UIVzKMbYs6+jORp78AkxQAzUGgOWU4ewReM/BKahxrCjpOsQAAggYoAYIAaSxYDlVMuttW8IgNo9uMT+U5j0ySZ9tMmCPZxBEwPlYsBya+1btPipnWco+3eXdBMCAAFADBADxEDyGLDcajm25g0BULP3lth+BpM++aSPNmGwp9wZIOxhbzm25i1aDNfMMpTt21P8Kf7EADFADGSPAcu1tW4IgFo9t8Tu5zDxs0/8aJMHezgjJQb6jwHLtbVu0eKlVo7h7D4dAYAAIAaIAWIgewxYrq11QwDU6rkFdm8h6XomfvaJH23yYE//Z38wh7nlWsu5NW7R4rdGhuFsfhrFn+JPDBADxEBvMWA5t8YNAVCj15bY/B4mfm8TP9oEwh7OSImB/mPAcm6NW7RYqZFhKJs3kXQVAgABQAwQA8RAbzFgOddyb20bAqA2jy2xd38mfW+TPtrkwZ7+z/xgDvNpDFjurW2b2h7ld238wtn7XAQAAoAYIAaIgd5jwHJvbVuUwj+1ozZ+4ex9VQUT/0pJ50j6DD8wIAaIgSUxYLnCcsa0SET9bbm3ti0ay9r4hbP3HUEnij096xhJ95O0QThqGAQBCEQmYDnDcoflkKhPN7XcW9uGAKjNY0vsjbgA0IWSdl5iN29DAAIQaELAconllGjFq8YFgaIxbOJ/9llA4MvBJoapdYr/AofxFgQg0JqA5ZRonwRY7q1tQwDU5rEl9l4RTADYR3ZsEIAABFITsNwSqYBZ7q1ti8TPbGFzENgs2IQwh9r3dmwQgAAEUhOw3BKtgFkOrmmLxq8mduFs3SnYhLArd7ngL1yYYBAEBkHAcku0uwMsB9e0IQBq8tYSW/cIJgDs9h02CEAAArkIWI6JVMQsB9e0RWJntrA5COwZbDLYff5sEIAABHIRsBwTqYhZDq5pi8QOAeCMHASAEyDNIQCBqgggAHzuQgD4+IVqjQAI5Q6MgQAEMhNAAPgAIwB8/EK1RgCEcgfGQAACmQkgAHyAEQA+fqFaIwBCuQNjIACBzAQQAD7ACAAfv1CtEQCh3IExEIBAZgIIAB9gBICPX6jWCIBQ7sAYCEAgMwEEgA8wAsDHL1RrBEAod2AMBCCQmQACwAcYAeDjF6o1AiCUOzAGAhDITAAB4AOMAPDxC9UaARDKHRgDAQhkJoAA8AFGAPj4hWqNAAjlDoyBAAQyE0AA+AAjAHz8QrVGAIRyB8ZAAAKZCSAAfIARAD5+oVojAEK5A2MgAIHMBBAAPsAIAB+/UK0RAKHcgTEQgEBmAggAH2AEgI9fqNYIgFDuwBgIQCAzAQSADzACwMcvVGsEQCh3YAwEIJCZAALABxgB4OMXqjUCIJQ7MAYCEMhMAAHgA4wA8PEL1RoBEModGAMBCGQmgADwAUYA+PiFao0ACOUOjIEABDITQAD4ACMAfPxCtUYAhHIHxkAAApkJIAB8gBEAPn6hWiMAQrkDYyAAgcwEEAA+wAgAH79QrREAodyBMRCAQGYCCAAfYASAj1+o1giAUO7AGAhAIDMBBIAPMALAxy9UawRAKHdgDAQgkJkAAsAHGAHg4xeqNQIglDswBgIQyEwAAeADjADw8QvVGgEQyh0YAwEIZCaAAPABRgD4+IVqjQAI5Q6MgQAEMhNAAPgAIwB8/EK1RgCEcgfGQAACmQkgAHyAEQA+fqFaIwBCuQNjIACBzAQQAD7ACAAfv1CtEQCh3IExEIBAZgIIAB9gBICPX6jWCIBQ7sAYCEAgMwEEgA8wAsDHL1RrBEAod2AMBCCQmQACwAcYAeDjF6o1AiCUOzAGAhDITAAB4AOMAPDxC9UaARDKHRgDAQhkJoAA8AFGAPj4hWqNAAjlDoyBAAQyE0AA+AAjAHz8QrVGAIRyB8ZAAAKZCSAAfIARAA35bShpO0kPkfQ4SYdKOiLYz/GSIjn0m8H4RPMX9sSbQzl8crikgyQ9QtK9Jd2uYc5ht+UEEADLGS3aI1K9MFuKb9tIOkzSiZLeL+ncyf+XSLohWHGN5jjsiSW+8Edsf1wp6cuSzpD0zklueZmkPSRtUDwD1mUAAsDnr2h5wjeajq3vL+nFkj4l6SYKfahPEaIFKPbELqy1+8dONk6SdICkTTrmszE1QwD4vB1tvvhG07C1qey9JdlH5hdR8Cn4xAAxEDAGfijpVEm/IWmLhrltbLshAHweH50A2H/yHf55ASd7NEdgD2e6xECcGDAxcLSkzX35fnCtEQA+l0ab477RLGi92+Ss/3QKP2d6xAAxUHEMXCrJLirceEGuG9NbCACftwcvAHacXHl7Mt/tk/QrTvrRJin2lP9kwL66fLIv9w+iNQLA58Zoc9k3mlWt7zz53uz1kq4j8VP8iQFiYKAx8OnJnQT7rMp7Y/sTAeDz+CAFwAMl2T3o0QaHPfiEGCAGUsfAjZJ+z1cHqm2NAPC5LnUsevvzjWZy3/5jJNkFM15DaA9DYoAYqCkG3j7CWwcRAL6SGS2+XaMxFWxqONqgsAefEAPEQB8x8MnJImZ3dWXRuhojAHz+6iMm2xyj02hswQxTv20OxL7wIgaIgSHGwLcl7dIpk9bXCAHg81m0+G89GlO7pnqjDQR78AkxQAyUioEfSXpC62xaXwMEgM9npeJz3nFbjeaOki6k+CN+iAFigBi4VQzY16FDFwEIgFYl81Y7zyvEpV6/lYHzXtho8vCMf2TS32rSl3Icx+VslxiIFwP2ScCQvw5AAMyrkM1ejzZnm1kt6XUUf4o/MUAMEANLY8CuCRjqhYEIgMYlc+aOVQqAQ5j0Syd9NMdiT7yzQ3wyHp/YdVJDfLogAmBmXW/8YrQcsNTwfSVdjwBAABADxAAx0CoG7E6poW0IAJ9HqxIAtq7/ZUz6VpM+moOxZzxnnfg6nq+HtmIgAmAkAmBDSZ+n+FP8iQFigBjoHAN2Z8CQnh2AABiJAHgGk77zpOdMLN6ZGD7BJ6ViwB4gNJQNAeDzZKkYnHfcmaPZVNLFCAAEADFADBADSWJgKI8SRgDMLJmNX5xXiEu9PtPw32fSJ5n0pZzKcTnbJQZixcBFkjaemW3rehEB4PNXtHl5q9HcSdLlCAAEADFADBADSWPg8Ftl2/peQAD4fBZeALyaSZ900kdzOPbEOjPEH+Pxx6WSNvfVj+KtEQA+F0Sb72tGs4OkaxAACABigBggBrLEwNFrMm59/yAAfD4LLQDewqTPMumjOR17xnPWia9j+fqHkrbw1ZCirREAPvzR5uMto7ELVPjuP1ayiBYs2EN8EAP+GPiNW7JufX8gAHw+izZ/bhnNfpz9c/ZPDBADxED2GDj1lqxb3x8IAJ/PwgqAE5j42Sd+NOdjj/9sDoYwbBsD9jVArQ8KQgAMVAB8CwGAACAGiAFioJcYOMBXR4q1RgD40LcVi7n3v3k0uzLpe5n0uZ1J/5yNEgN1xMBJvjpSrDUCwIc+2vy8eTTHIAAQAMQAMUAM9BYDl0jawFdLirRGAPiwhxQAPPWvjrOGaMGDPcQNMdA9Bvbw1ZIirREAPuzR5ou2RfX3pvqjOR97uidv2MHOGwMv89WSIq0RAD7s3phJ3V57IQAQAMQAMUAM9B4D7/TVkiKtEQA+7KkLuLc/HRh84l8r6RxJb5P0Zn5gQAwQAw1i4MOSbO19b4LM2f4MXy0p0hoB4MOeM5669K3nBZ0kV0t69kAeoekLGVpDAAJdCewi6XNBc9yXuw6qYDsEgA9+lyKds42OCzg5viFpJx9nWkMAAhC4mYAtc/6mgHnuygr9gwDwOS1nMe/St94VbGLcKOnhPsa0hgAEILCGgImAiJ8E3G6NlfH/QQD4fNSlSOdsozODCYATfXxpDQEIQGAmAfs6IGcy7dL3vWdaGvdFBIDPN11iJGcbXRhsUjzRx5fWEIAABOYSiHZh4CPmWhrzDQSAzy85i3mXvnVVMAGwvY8vrSEAAQjMJWB3B3RJlLnaHDTX0phvIAB8fskVR137DTUZbBBsEIAABHIRsFuJuybLHO0OzzXQTP0iAHxgc8SQp89Qk8EGwgYBCEAgF4FoAuCIXAPN1C8CwAfWU6xztEUA+PxJawhAoCICCACfsxAAPn45irinTwSAz5+0hgAEKiKAAPA5CwHg4+cp1jnaIgB8/qQ1BCBQEQEEgM9ZCAAfvxxF3NMnAsDnT1pDAAIVEUAA+JyFAPDx8xTrHG0RAD5/0hoCEKiIAALA5ywEgI9fjiLu6RMB4PMnrSEAgYoIIAB8zkIA+Ph5inWOtggAnz9pDQEIVEQAAeBzFgLAxy9HEff0iQDw+ZPWEIBARQQQAD5nIQB8/DzFOkdbBIDPn7SGAAQqIoAA8DkLAeDjl6OIe/pEAPj8SWsIQKAiAggAn7MQAD5+nmKdoy0CwOdPWkMAAhURQAD4nIUA8PHLUcQ9fSIAfP6kNQQgUBEBBIDPWQgAHz9Psc7RFgHg8yetIQCBigggAHzOQgD4+OUo4p4+EQA+f9IaAhCoiAACwOcsBICPn6dY52iLAPD5k9YQgEBFBBAAPmchAHz8chRxT58IAJ8/aQ0BCFREAAHgcxYCwMfPU6xztEUA+PxJawhAoCICCACfsxAAPn45irinTwSAz5+0hgAEKiKAAPA5CwHg4+cp1jnaIgB8/qQ1BCBQEQEEgM9ZCAAfvxxF3NMnAsDnT1pDAAIVEUAA+JyFAPDx8xTrHG0RAD5/0hoCyQhsIumekvaSdICk3SRtI2mDZEegIwSALwYQAD5+OYq4p08EgM+ftIZAKwKbS3rSpMWxkt4q6R8kfUHSf0m6SZo5H6+XdPFEFFjyPU3SGyUdJenhkjZsdXR2RgD4YgAB4OPnKdY52s5MODkO1LRPH15aQyAeATuLP1TShyRdM6fIN50f6/cz4fBXkh4vabN4Qw9nEQLA5xIEgI/f+vlb+n8EgM+ftIbATAL3k/QHkj4l6cbERX9e0vixpL+X9AxJd5lpFS8iAHwxgADw8Zs3d0u9jgDw+ZPWEFhDwL63P72ngr8oadjXBvZVwV3XWMc/CABfDCAAfPwWzdkS7yEAfP6kNQRuJrCjpFMWfI9fYnLbMX84sekYSXbtAZuEAPBFAQLAx69UHph3XASAz5+0HjkB+6j9BEnXBTjrnzfJ7fXvSXq2pI1H7i8EgC8AEAA+fovmaIn3EAA+f9J6pATsgrs/knRV8MK/Pql8VdKBI/WZDRsB4HM+AsDHb/18LP0/AsDnT1qPkMD2ks6rrPCvTzR/KcnWHRjbhgDweRwB4OO3fh6W/h8B4PMnrUdGYE9Jl1Ze/KdJ52xJW4/MfwgAn8MRAD5+07kX5TcCwOdPWo+IwMGTBXiuHUjxnyagb0vaZUQ+RAD4nI0A8PGbzrsovxEAPn/SegQEbLW91wys8K9OQFevrE44AldyDYDTyQgAH8DV8y7C3wgAnz9pPXACd1xZrjfCZM1pgy1D/NKB+9KGxycAPicjAHz8cs7hLn0jAHz+pPWACdhFcvY9eZeJVWsbe0bBkDcEgM+7CAAfv2h5IVxy8+GlNQTSEbAr5aNN2Nz22CcBT0mHMFxPCACfSxAAPn6552/b/sMlOB9eWkMgDYEjR1j8p8nDrgnYNQ3GcL0gAHwuQQD4+E3nWJTfCACfP2k9QAKPknTDiAWAJSe7O2CItwgiAHwTFgHg4xel8E/tQAD4/EnrgRG4r6QrRl78p8nhE5JuMzD/IgB8DkUA+PhN51aU3wgAnz9pPSACW0qypXKjTM4Idrx1QP61oSAAfA5FAPj4RZjTq20Il+x8eGkNge4E3kPxn5kPntYdabiWCACfSxAAPn6ri2+Ev2dO+JKG+fDSGgLdCOxB8Z+bC+x6gNt2wxquFQLA5xIEgI9fydo669hzJ/2snft4zYeX1hDoRuDjCICFueBF3bCGa4UA8LkEAeDj10cNbXOMhZO+TUep9vXhpTUE2hN4LMV/aR64XNKd2qMN1wIB4HMJAsDHL1WdTNXP0omf6kBN+/HhpTUE2hHYaLLwzZcQAI3ywGvboQ25NwLA5xYEgI9f0zrY136NJn5fxthx2CDQJ4FnUfwb5wB7EuLP9emcDMdCAPigIgB8/PqspU2O1XjyN+ksxT4+vLSGQHMCm0n6DgKgVQ44pTnekHsiAHxuQQD4+KWokSn7aDX5Ux54Xl8+vLSGQHMCz6P4t57/9qyA+zVHHG5PBIDPJQgAH795da/U660TQG5DfXhpDYHmBM5CAHSa/0c1RxxuTwSAzyUIAB+/3PWzbf+dEkDbg7TZ34eX1hBoRmAr1vvvPPc/3QxxyL0QAD63IAB8/NrUwj727ZwEchnnw0trCDQjcDBn/53nvn0NsG0zzOH2QgD4XIIA8PHLVTe79ts5CXQ94LJ2Pry0hkAzAqchAFxz/7BmmMPthQDwuQQB4OO3rP71/b4rCeQw1oeX1hBYTmBTSfbM+xzxO5Y+P7wcc8g9EAA+tyAAfPyi5YdwSdCHl9YQWE7gMRR/97y/RtLmy1GH2wMB4HMJAsDHDwGwJPn68NIaAssJ2CNuo03EGu158nLU4fZAAPhcggDw8Ys2z8MlQh9eWkNgOYGvIQCSzPs3Lkcdbg8EgM8lCAAfPwTAkuTrw0trCCwnYB9fR5uINdrz98tRh9sDAeBzCQLAxy/aPA+XCH14aQ2BxQTuTPFPNuetGNS2IQB8HkMA+PghAJYkYB9eWkNgMYEHLYm/aBM0sj0XL0Yd8l0EgM8tCAAfv2jzOdnZQKqB+fDSGgKLCfwKAiDZnL9e0gaLcYd7FwHgcwkCwMcvVZ1M1U+yZJDMIB9fWkNgIQEe/5v2+oetF9KO9yYCwOcTBICPX6o6maofBIDPn7SujMDRfAKQdM7vUpn/EQA+hyEAfPxSFe5U/SRNBimM8uGlNQQWEzgRAZB0zh+wGHe4dxEAPpcgAHz8UtTIlH0kTQYpDPPhpTUEFhOwW9dSxCl9/IzjMxbjDvcuAsDnEgSAj1+0vBEuGfrw0hoCiwmcjABIOuefshh3uHcRAD6XIAB8/BAASxKwDy+tIbCYwPFL4i/aBI1uzz6LcYd7FwHgcwkCwMcv2nxOejaQYnA+vLSGwGICL0AAJJ3zOy7GHe5dBIDPJQgAH78UNTJlH0mTQQrDfHhpDYHFBOwj6xRxSh8/42iPVq5pQwD4vIUA8PGLljfCJUMfXlpDYDGBvREAyeb85YtRh3wXAeBzCwLAxw8BsCQB+/DSGgKLCdxzSfxFm6CR7fnyYtQh30UA+NyCAPDxizafk52WQxAwAAAgAElEQVQNpBqYDy+tIbCYwCaSbkIEJJn3ZyxGHfJdBIDPLQgAH79UdTJVP0kSQSpjrB82COQmcBkCIMm8f1duR2XoHwHgg4oA8PFLWStT9JUkEaQwZNqHDy+tIbCcwFkIgCTz/qjlqMPtgQDwuQQB4OM3rXNRfidJBCkH48NLawgsJ/BCBECSef+A5ajD7YEA8LkEAeDjl7JWpugrSSJIYci0Dx9eWkNgOYF7IwDc8/5ryzGH3AMB4HMLAsDHb1rnovx2J4LUA/HhpTUEmhGwK9hTx+6Y+vuzZpjD7YUA8LkEAeDjFy1HhEuCPry0hkAzAq9CALjm/iOaYQ63FwLA5xIEgI8fAmBJ4vXhpTUEmhF42JI4jDZRI9ljd1Fs1AxzuL0QAD6XIAB8/CLNY7PFdRaQYzA+vLSGQDMCG0j6bsD4zzGnUvf5jmaIQ+6FAPC5BQHg45d6Lnr7QwD4/Enrigm8BQHQaf4/qWKfIwB8zkMA+Ph5C3bq9p0SQGojVvfnw1tv690lvVzSWyW9V9KZkj48Gc6xkh4taet6hxbW8l9gVcDW8/9iSbU9AGh1ACIAVtNo/zcCoD2z1S1W17oIf7dOALmNXg1r6H9vIemPJF3Y4Ez0RkmnTH7uM3QoPY/vPQ3Y5475mvr/7Z79k/pwCAAfUQSAj1+0uY4A8Pmzc+t9JH2rQ/G5QdJfSdqy85FpuJrAThMRdn0HP0SbyH3Yc76kDVfDq/BvBIDPaQgAH78+5mmbYyAAfP5s3douPrOP+q2Qt3HU+n2/KOnurY9Og1kE3uD0xXrfDPX/R82CV9lrCACfwxAAPn7RcoOrCOUYjA9v/NYvS1hs/kPS/eMPObyFdn3FVQn9kmNelO7zo+G92MxABEAzTvP2QgDMI9Ps9dLzeP3xEQDN/JZkrwMzXHRmImDzJNaNu5OXIADm5gK7/mTXgYQHAsDnSASAj9/6Alz6/7mTvpRhPrxxW+8s6ceZisxr4w67GstuJ+mSTP4pNZdSHfed1XhxuaEIgOWMFu2BAFhEZ/l7qeZkqn4QAMt95t7DvvfPOXF+OqAzNDdsRwd2f/tNiIA1OeFSSds5mEZrigDweSRnHutS1Pb0Daf31l3GmLPNmsme80BN++7dIz0c8PAeisrpPYxjDIc4pgdfNZ0Lpfe7VlJtCXZZjCIAlhFa/D4CYDGfZe+WntPrj48AWOYx5/t3lXR5T0VlF6etNP8ZgVN78tf6yRjt/6cPMCAQAD6nIgB8/KLNcQSAz59LW/91j8Xk7UutYYcmBDaT9Lke/RYtKZg9r24CqsJ9EAA+pyEAfPyizXUEgM+fC1vv13MRuU7Stgst4s2mBGyNhbE+LMiWoK59wZ95fkYAzCPT7HUEQDNO8/ZCACwpivPA1fb6JpK+smSsOYLhT2oDFdjePSRdU8CHOeKiaZ+2LPUdA/vEaxoCwEcQAeDj13Qe9rUfnwD4/Dm39dGFCoc9q90+wmZLQ8DWbrCL4fqakCWP821JtjTykDcEgM+7CAAfv5Lze9axwyU2H94Yre9V+MzR7jpgS0dgL0nfG7gIOHskT5xEAPjmBQLAx29WES75GgLA58+ZrT9SuFjYVw+29gBbOgI7SPpCYb/mShRvk2RfWY1hQwD4vIwA8PHLNYe79osA8PnzVq2fGqRIPOZWlvGCl4AtuXxaEP92nfCr29kSvy/0QqmsPQLA5zAEgI/f6vkX4W8EgM+fa1rfIdBysmeusYx/UhGwT1b+eAAiwB5+9KupoFTUDwLA5ywEgI9fhKK/2gYEgM+fa1qfEKwwDOUBLmsgB/nn1yT9IJi/V0/sRX//m6SfD8KxbzMQAD7iCAAfv0XzssR7CACfP29pvZukG4IVhHfcYh1/5CBgt8u9MuNDnlInBHty5MEDvse/iY8RAE0ozd8HATCfTZN3Us9pb38IgCZeW7KPLZry2WDF3wLDFgYa0oNclrih2Nt3k/TWgAJwmhz+W9KLJN22GKE4B0YA+HyBAPDxm87JKL8RAD5/3tz62QGL/zTAXpFgfHTRjIB9rP7+QLFgixgdL2nLZuaPYi8EgM/NCAAfv2lejvIbAeDzp7aRdEWgpL8+sOx7ahYGcjq5ZfN9JL1b0pWF4sIW9HmdpO1b2j2G3REAPi8jAHz81ufn0v8jAHz+1CmFknybwDnCOUaadyNwG0mPmiyw8+eS/jNznHx+0v/LJHHh52JfIQAW81n2LgJgGaHF77fJ233siwBY7K+F7/5S5qSeKgAuYmGghX7s682HSLJnNdhV+N4LRu3jfbvV87mS7tHXAAZwHASAz4kIAB+/VDk9VT8IgI7+tAuqvlqJALBgeWzHcdIsD4GNJhcO2sWDD52sMPgESc+RZNdr2COdPyrJEu0HJJ00EQv2XIlnTV47YLIQ0YMkbZXHpFH0igDwuRkB4OOXqnCn6gcB0NGfx1RU/C1YPtZxnDSDwJAIIAB83kQA+PilKtyp+kEAdPDnvQs/7Ker8x/cYaw0gcCQCCAAfN5EAHTnZxflds3dOdrZaqChDLJB1rDZR7Q5HJK7z3fVABcbIZCRAALABxcB0J3fE4PVjQttKLmLTtv+u+Ptp+WvB2TWlPH1K98790OKo0AgHgEEgM8nCIDu/E4MVjtufl5M0+LR137d8eZvaUu/fjeYE9v65VX5MXEECIQlgADwuQYB0I3fwyXZ0zfb5uuc+9/8iXDOA3Tpuxveflq9IZgDu/C1ZWFv1w8ujgKBcAQQAD6XIADa89tJ0jcC1o7jbChdikjONu3x9tPC7uGOpuC6+sGWLmaDwBgJIAB8XkcANOe3sSTLtVcHrLNWO55nQ+laRHK1a463vz3tYT/nBmTV1Qe2foE9154NAmMjgADweTyaAHifJPNppJ+3STpH0rXBa8aBFgpdi0iudr7wzNPaVlvLNd5S/T4uDyp6hUBoAggAn3uiCYBS+XMIx93LQiHaQHzhmb71tgUf6pLTN/+SHhU9QiA8AQSAz0UIgHg1s2udsNqGAFgyH+ypbl0BR2+325Kx8zYEhkYAAeDzKAJgGPXAHh528xatSE3tivD7lwdc/M3vfx0BMjZAoEcCCAAfbATAMASALWV/84YAmJJY+9se9vO1gQsAWxjo7muHzX8QGDQBBIDPvQiAYQiAWx4bjgCYPSGOHXjxn/r9T2cPn1chMEgCCACfWxEA9QuAb60OgWkhiPJ7tW2l/r5PBbdwpPLX5ZI2LwWa40KgZwIIAB9wBED9AuCE1SGQqpCk6me1baX+PmMkZ/9Tn/1uKdAcFwI9E0AA+IAjAOoXAPutDoFpEYjye7VtJf4+qHDxv6TA8e1aB1vsiA0CQyeAAPB5GAFQtwCwT3xthcJbtiiFf2rHLYYV+GMLSZcWKMDTsdsnD6XuPHhCAd4cEgJ9E0AA+IgjAOoWAG9Z7/5p8Ynye719ff7/5wWLvy0badce2HZBATs+vnJsfkFgyAQQAD7vIgDqFQDXSNphvfujFP6pHevt6+v/hxZ+2I/ddTDdnllAABh/e+ARGwSGTAAB4PMuAqBeAfDqWa6fFt4ov2fZmPu1jSSdV6joGnf7Dt7WHZhu9neJryJOnhrAbwgMlAACwOdYBECdAsC++7/TLNdHKfxTO2bZmPu15xcs/jZu+95//XZ0AZtYGGi9F/h/aAQQAD6PIgDqFAC/P8/t08Ib5fc8O3O9fjdJVxUotlPe9qyBWdtdJP2kgF3HzTKG1yAwEAIIAJ8jEQD1CYCLJW06z+3TQhTl9zw7c71+aoEiO2VtwmO7BQMrkaxYGGiBQ3iregIl5tR0vs/6fURlRBEA9QmAZyyKsVlBWfK1Rbamfu9XChZ/Y/zcJQO6v6SbCti4zK4lZvM2BMISQAD4XIMAqEsA2FP/Fq7xUrLYzzq2Lzybt7aPRL5eoLhOx3zuMsesDOXDBWw0LguDpjlm9oRAKAIIAJ87EAD1CIDLJO24zN3TghTl9zJ7U73/xwUK65TxjS1uuXtkITufmAo0/UAgEAEEgM8ZCIA6BIBd0L1vE1dPi1KU301s9u5zP0nXFSqsxvmNLQdwfgFbP9HSRnaHQA0EEAA+LyEA6hAAhzR1c5TCP7Wjqd2e/f65QEGdju+7ku7Y0viDC9n7Cy3tZHcIRCeAAPB5CAEQXwC8ro2Lp4Upyu82tnfZ9zcLFdMp31/vYPQmkkw4TPvo6/ffdLCVJhCITAAB4PMOAqD/PNwm3/+jJFvYrvHWpvM+9m1seIcdt5T0vQKFdMrt9A42T5v8UQG7fypp+6kB/IbAAAggAHxORADEFQAXdvh0ufezymkxnPfbF56LW59UoIhOx2kP+7n3YvMWvntnST8uYP/M9aMXWhrnzT0k2eOdXyjptZOHLZ0iye6q+ENJD5a0QRxTsaQnAggAH2gEQEwB8ElJd+3i2mmBivK7yxiatHlY4Yf9HNPEyCX7nFhAAFwxKZ63X2JXpLdvNxFKtuzlvzdgZc9bePucpZgjjQlb0hFAAPhYIgDiCQDLYfY1cactSuGf2tFpEEsa2XciX2hQEKY2pP791XUP+1li7ty371toYSB7VkIN2yNWHqzUxX9/u2RVxhrGj43LCSAAljNatAcCII4AsNvJf2+Rs5q81yVZ5mzTxOa2+xxZsPgbq19qa/CC/T9YYCzfCL4wkC1a9MoE4uj7knZdwJ636ieAAPD5EAEQQwD8UNJjfK78WeucxbxL3ynGtLqPu0++AzZYXWxJ0ca+d065/WKhsTwp5SAS9mWPuLQrX1P4yvqwrzz2SmgfXcUigADw+QMBkC7XdM1Z35T0QJ8b/7d1VyNytftfy9L89d6ExaHtmK+UtG2aYazpxdZ3bmuLd/+z11gQ45+dMy3nbCLgATGGiBWJCSAAfEARAP3n3mnutsXrXi/JLghPtk07j/I72cAk/WqBQrma43NSDmZVX79VaFwPXWVD6T9/bfL919UZOXw7k3grzW3sx0cA+CIAAdC/ALAHwp3cZF3/Lq5dXbAi/N1lDLPabCbJvrsuNaZzMn5vfhtJ3ykwtnfPAt3za3ZB5/E9jf1zkjbveXwcLi8BBICPLwKg35pia8fs5nPZ4talCuS84y62tvm7r+ipSMwaxw2Sdm9uaqc9jyowPlsYaIdO1qZpZB992YSYxTzXax9qu7JWmqHSSyYCCAAfWARAP/nnPEn7+1zVrHWuxNm132ZWL97r/oUf9vP/FpuX5F27+C3nR+Dz/PeaJNa378SuzreLX+bZlfP1P29vLi2CEkAA+ByDAMiXgy5a+XRz7z4XKcuZOLv07QvPn7X+l0KFwsZ7SZflGDsO+k0FxmkXNva9MNBvFFoFcXX82uJCbPUTQAD4fIgASCcA7Lv9T0l6sSQ7aS2yrU5yEf72Qnh6gaK4mptdnNbXZksL22IQq4/fx98v6GmA9n2/PdmqjzEtO4ZN1j592xPi0R0GAeBzOQKgfT6yr4TtxPDcyRLk758s2Wsruh4maRufK9K0Xpb4+n7fMyr7WPy/ChaMf/IY37GtBVTfPrKP4ls9carD2O4i6WMFxraI5TWS9ukwFprEIYAA8PkimgCwC4KPCPZzqKTHSXrIyuqitlBZ2G1RwivxngfUWwoWDCsOO3mM79jWlr8t4acDO9rbpJlNnP8oNK5lLH8gyZZkZquTAALA57doAmBP33BovSzh9f1+V49YINjHtH3bOz3eS7sanqCdfbQ0taOv3/+awO5ZXRw8+U7MxFRf4+hynK9L2nqW8bwWngACwOciBICPX7jWXRJgzjZdAG0s6fyCRcOu3uz8NKYuA17Xxi6Sy+mTeX3bExZTbebDNxQax7zxLXr905Mrdm2tCba6CCAAfP5CAPj4hWu9KMmVeK8LIHveewlbp8d8ZBejE7ax4vmfBRicmmgM9hzrjxewf+q/rr9Py7jYUyK0dLOOAAJgHZCW/yIAWgKLvnvX5JerXVte20v6UcHiYUs0RtjsNrVcPpnXr13deg/n4PcoJF7mjant67Y2N1s9BBAAPl8hAHz8wrVum/By798WkJ2F5bZpXv/20JgQt3JI2rKQEHptW4et2v9Zkq4t6L95fm37+vNXjYk/YxNAAPj8gwDw8QvXum2yy71/G0D2POTc9izq324/ibTZCoSL7M3x3lWS7tASgj3L4KQCtuYYv/VpazE8sSUDdi9DAAHg444A8PEL1zpXUuzab1NAt5P0rYJFxCZCtPs771VoYaAjmzpt5b5Yu4Oga3xEbfcTSfZ1BltsAggAn38QAD5+4VpHS6hNAf1pwSJi330/uKmhPe9X4isRE2JNFgbaS9J3C/otd6x/X5KJMLa4BBAAPt8gAHz8wrXOnRTb9t8E0AMkXV+wkES+8MtWqmvLPMX+T1niuMMLP6ApxRib9GG3hNpTC9liEkAA+PyCAPDxC9e6SVLrc58mgEreMvadDt95NxlTyn0+W0AE2EMtZm23lfQXBezpM2bXH+sTkmzcbPEIIAB8PkEA+PiFa70+eZX+fxmgZxQuJsvOdJfZ38f7v16I0fplOe8uKVrC6Cu+39PnIz37CKqBHAMB4HNktPm8Puf4RjfC1n0lxKbHWeQC+2j1skLFzez/x0XGBXrPFgYqsZb+365isO/kAR3fK+irpvGWc7/jVvHgzxgEEAA+PyAAfPzCtc6ZALv0vQhQyY+S7Srvmi7welGB4msXR/7cRKT9buFrNLrEXa42du0DWxwCCACfLxAAPn7hWudKfF37nQdo78IP+3nJPMOCvr6FpB8WEAElPnnoGmt9tDNR9OigMTJGsxAAPq8jAHz8wrXuIwm2OcYsQPaR9gUFitnU7q8UftjPLCZNXrO7FaZj4Hc5FrZU9e5NHMY+2QkgAHyIEQA+fuFaRysMswD9XuFC9ouzjKrgNfs43s5Ao/l4jPbY+gfe5yZUEHLhTUQA+FyEAPDxC9c6WjJeD2gHSVcXLGLvWm9QZf+/tyC7aLFV2p4vSbKvZtjKEUAA+NgjAHz8wrUunRTXH389oPcXLGCXS7JH1da82ep76xnzfzkm/yzJnoXAVoYAAsDHHQHg4xeudbRisBrQ4woXr99ZbUzFf3+6MMeSMWYrRtoTCyM9dfCdFcdS7aYjAHweRAD4+IVrXTI5zzr2FJA97OfbBQuXFc0NpsZU/vupBTnO8nFfr10qyZZGtu1phe8iWT/ml6/Yxa9+CSAAfLwRAD5+4VqvT0yl/58COr5g0bIL53adGjKA3/agnpJPTiwRUybg7rbOdy8uGFOzGDxznX38m58AAsDHGAHg4xeu9azEVPI1A/TAwgvJ/Fk4L/kN+r/Bil/OGHvrgts2TwrEwb6e+GW/a+mhBQEEQAtYM3ZFAMyAUvNLORNxl77tY/ezCybp/5x8Z3z7mh06x/Y7SLqqINcusdC2zXWTxw0vu27DPg35cCAO5pMHzfEZL6cngADwMUUA+PiFa902yebe/1mFk/OTw3konUH2yUZu/5Xq/xJJTR8Msrmk8wKxMNFpD05iy08AAeBjjADw8QvXulTCnnfcHxRMzHZmOOTtngNdGOiTkrZt6Tjbv+RFpuvj//wKHjPdEnHI3REAPrcgAHz8wrVen4jG+r897MdWzhv6dmpBgZUjtk503Ff/AElXBOLxT5Js2Wu2fAQQAD62CAAfv3CtcyTlGvv8w3CeyWPQwwIVPE+c2H399nWRd9tPkl074LElZVt74iVbPgIIAB9bBICPX7jWKZNXrX192XEWGc6hDQz610AFr0vMfEfSHg3G2XSX3wrGo7YnTzblHGE/BIDPCwgAH79wrbsk4KG1eUQ4r+Q16MBgBa9NPH1C0jYZ8BwdiMlNkn4zwxjpUkIA+KIAAeDjF651m+Q7xH3fEc4j+Q3aUNI3AxW8pnH1xsyf1PxlICb2tUStT6HMH8Hdj4AA6M7OWiIAfPzCtW6afIe4339L2jqcR/ox6PmBit2y2LpmspLhb/eAxS7AswvxltnT1/t2geLP9zDuMR0CAeDzNgLAxy9c676SWcTjHBrOG/0ZZIsdXRmo2M2Lj4snC/f8Qn9YZAsm2S158+zp+3VbwjnHVx49Ig11KASAzx0IAB+/cK37TmhRjmcXwg3lYT9dg+rVgQrdrLj4l0Kf0NiiPLY4zyybSrx2riRbvIjNTwAB4GOIAPDxC9e6REIrfcyfsvzqzXG4gyRjUdofs45/QuF74m153khLJ/+DpP0l7SbpHpLsaZls7QkgANozW90CAbCaxgD+npV8h/7aawbgt1RD+JtgAsAWZLLb8iJsVnDtgT1R54NdG2G3RP6bpI9NHqL13smKiFbgXinphSvXTTxW0l6S7itpK0l2AeiYNwSAz/sIAB+/cK2jJrdcdtl3ynyc+r9haN+v52Ldtl9bmtfOcCNtzwjEpy3PWfvfKMkufv13SfbIZFv++p2SXjf5NMjWHzhC0lMlPXLlkdjbS9oskkOctiAAfADPCTYfUq4H4iNTaetZSWLIrz2xUj/lNNvurS/t83+WdJecg3T0fWwAPqX98+PJyosmnr8g6czJ3Qm2pLQtw/wnk4tJj5T0dEmPlmQrTd5b0p2CXmODAOg+EeyaqWgXDu/UfTi0NAKlE0ufx/8gLp9JwERRn35Yf6zXTgqJPaY38mbrRay3m/8XM7lB0mWSLpJkF93a/Hv75HHb5m9betse3WyLUtl6B3bNxd0k3TZzECAAugO+X8A5MKRPp7p7xtFyLEnMzmDsaXhstyZg3wt/vcDkNp8cdGtzQr5ym5Uz37HMl5LjvHrlSY32yObTJb178unQmyafKLxckq1fYaskHiDpoZLuJWmLFhGDAGgBa92uxxTIEYvi0NbJYHMSWAR4SO+92Mlp6M2f2/PktpUId60MqhWaL/bMaUhzMOdY7G6W70u6UNLZkt4v6a8md0vYra42923NjydJ+lAw/9k1FzVsOwd7aJbFkj3Dhc1JIOekjNL3lzIvIet0QYjmdmHkd3tKjnZWd+cQo25vhN06eUlPnKLMH+xY/FWHh08NAsCKvwkrzzhztLU8wuYkkMMxkfq0B6vs62Q0luZ2IVdu3x1fwff9y/z9YEk/6oFVbl/Qf/54X8Y4qgCwrwUfIMk+9o/0uOzVPMf4HJdluan1+6uBDvHvt7UmMt4GdpVvrkcF2/e6vzYgtPYddNRFlIY4j4c6Jltx0paejvRzgSSbr9GZv2pA+aTYUKI72WPfDwLfWlbM4UsObB9x2/34Hu7r29oFhnaV99C2wxJzWs+N/9PGITyHxdOuW2JzEhjypDjEyWasze3e2lTfc39k5Z7wobK0VfeGPIcYG/6NGgO2Uiebk0BU53rt+mTQhUic7uqtud1e9XFHcbtW0tEjWHrWvjY52cHJG+e0p0CPMQbsOR2b9JYNB3ygIQaPfTdrV66y+QhYcbOP2do+FOesyb3btmjIWDZLRDbmIc4lxoRfI8bAe8aSXHKPM6JzvTbZvb9s6QjYk+fsAT122828h+P8h6Q/k7RnusNW1dOWQW+V8s4l2iMAIsbA06rKDoGNjehcj01WiHjYT76As9uD7ELBh0/uGPjlyRPoHjjw7/jbkLSVJi/lkwA+CSEGssaAnYS0Wf2xzRwe3b6eYhux7eNH50EGHInAQyq5hSri3MUmPm1oEgMsAJQw4zUBXss+tvwnGwRKE3js5AJIexBOLfMGO/FVTTHwnNITfEjHr8nxi2y1hSvuMSTHMJaqCTwbAYAAIgayxMD2VWeGYMYvKqo1vff7wbhiDgTsYtSa5hC24q/oMXAGaSUtgegOb2KfPaFt47RY6A0CbgJ2G+WpiABEEDGQJAbsuS67u2clHawh0KTARt7HgmKfNSPiHwjEIXDblcfTRp5D2MaZfw0xYAtusSUmUIPjF9n4l4l50B0EUhOwRx/bs8sXxTHvwYcYmB8DtrKo3WbLlphAzUF3maStEvOgOwjkILC1pC8gAhBBxECnGHhNjklJn/MVVw3C4Jk4EAIVEbDVAu1W1RrmFjbipygxcDmLjeXLclGc3NaOT/Cwn3xBQc9ZCTxB0jcQAgghYqBRDLwo62wceedtC2+E/W0pSFuClg0CtRKwOwTscaanSPq2JLuYNcLcwgb8ECkGviTJLqRly0QgkrOb2nJcJhZ0C4FSBG4vaTdJj5J00MpTGF8m6Q0rIuGfJJ0r6Zsdns7YdF6xH8U/Ugz8t6SdSk3IsRw3ksOb2GJnS/Z0OjYIjJnAbSRtI+kBkvaV9ERJh0j6A0nHS7K7Y/5ekn1VZncgfE+SPSa7yRxjHziVjgGL1UeOeYL3NfbSjm57fFtnnQ0CEOhGwJ6idi9JD5V0gKTflPT8yfU0L5f0JknvXnns83krX038CNGAaCoQA7/bLbxp1ZZA2wJccn87o2GDAAT6JbCJpO0k7Szp/0h6sqTDJB01efS23Z71tsnXFx+YPB76XyVdJMluz+VhSHyK0LVWvKXf8B730bo6qe929rAfew49GwQgEJ+AXeR4J0n3lvQwSY+e3PnwdElHSvoTSSeuLJN85sr6CBdL+nGBM82+8xjHWyyMPi7Jvt5i64lALQHJrSA9BQSHgUBBAptKurukXSTtJ+kpkg6fXL/wEkmvk/ROSR+W9GlJ/y7JLhS7EeEwiK8pvj75GuouBWNvlIeuQQD8Gw/7GWVsMmgINCGw4cqKoPeVtJcku07otyW9cHI2+UpJb57cNvxeSR+T9F+IhZBiwS5WtdUy2XomEF0A2P3RNqnZIAABCHgJmBiInvPGZt9f8LG/N6y7t48ebG/tPjRaQgACEFhDAAEQRwDZhaIvWOMd/umdQGQBYB/X2ZPU2CAAAQikIIAAiCEArlhZ9CqFT+nDQSCyALDv8dggAAEIpCKAACgvAOxWUbtegy0AgagC4KwAbDABAhAYFgEEQDkBYGf9tlKl3enBFoRARAFgD/v5+SB8MAMCEBgOAQRA/081q3sAAAilSURBVALgmpUFo2xdCLZgBCIKgFcFY4Q5EIDAMAggAPoTALY+wztYwC32xIkoAD4jyb4C4AcGxAAxkDIGvsttgNlvg7TC/yFJD4pd+rDOCEQUANiEX4gBYoAYqCcGrl1ZofHQyTLPd6W01kOASVbPJMNX+IoYIAaixMCVkk6ZPG76qZJuX0/Jw9LVBKIEE3aQ2IgBYoAYiBMDtgrr9yWdP3mg00dWnvr4isnTHu1Rvfuzet/qMlrv30y4OBMOX+ALYmBcMWAF9cHBfnaVtD3PX6m3qLexnIQzroSDv/E3MRAnBo5ok6zZFwKpCZAM4iQDfIEviIFxxQACIHVFo79WBEg440o4+Bt/EwNxYgAB0KpcsXNqAiSDOMkAX+ALYmBcMYAASF3R6K8VARLOuBIO/sbfxECcGEAAtCpX7JyaAMkgTjLAF/iCGBhXDCAAUlc0+mtFgIQzroSDv/E3MRAnBhAArcoVO6cmQDKIkwzwBb4gBsYVAwiA1BWN/loRIOGMK+Hgb/xNDMSJAQRAq3LFzqkJkAziJAN8gS+IgXHFAAIgdUWjv1YESDjjSjj4G38TA3FiAAHQqlyxc2oCJIM4yQBf4AtiYFwxgABIXdHorxUBEs64Eg7+xt/EQJwYQAC0KlfsnJoAySBOMsAX+IIYGFcMIABSVzT6a0WAhDOuhIO/8TcxECcGEACtyhU7pyZAMoiTDPAFviAGxhUDCIDUFY3+WhEg4Ywr4eBv/E0MxIkBBECrcsXOqQmQDOIkA3yBL4iBccUAAiB1RaO/VgRIOONKOPgbfxMDcWIAAdCqXLFzagIkgzjJAF/gC2JgXDGAAEhd0eivFQESzrgSDv7G38RAnBhAALQqV+ycmgDJIE4ywBf4ghgYVwwgAFJXNPprRSBawvlFSfzAgBggBnLEwAcVS2AgAFqVK3ZOTSCaAEg9PvqDAAQgMCXwZgTAFAW/IRBLDZsYYYMABCCQiwACIBdZ+q2SAJ8AVOk2jIYABDoQQAB0gEaT4RJAAAzXt4wMAhBYSwABsJYH/42cAAJg5AHA8CEwIgIIgBE5m6EuJ4AAWM6IPSAAgWEQQAAMw4+MIhEBBEAikHQDAQiEJ4AACO8iDOyTAAKgT9ocCwIQKEkAAVCSPscORwABEM4lGAQBCGQigADIBJZu6ySAAKjTb1gNAQi0J4AAaM+MFgMmgAAYsHMZGgQgsIYAAmANDv4ZOwEEwNgjgPFDYDwEEADj8TUjbUAAAdAAErtAAAKDIIAAGIQbGUQqAjcEezjGJqkGRj8QgAAE1hF4W7B8d+g6+/gXAr0SuCTYhNi919FzMAhAYEwEzgmW7x43JviMNR6Bc4NNiMPiIcIiCEBgAAQ2lnRtsHz3kAFwZQgVE/hAsAlxniSbqGwQgAAEUhJ4drBcZ9dfbZdygPQFgbYETgo4KY5tOwj2hwAEILCAwE6Srg6W6+z6qw0X2MxbEMhO4KXBJoWpYpsYJgL4JCC7+zkABAZP4OGSvhEwz9n1V2wQKErgkIATY3pron0dYNcE2IWB3B1QNEw4OASqIrC9pCdIOlHSjUFznF1/xQaBogQOCDo5piKA3xIMYEAMDC8G3l8083NwCEjaBQFAgSUGiAFioPcYsE8n2CBQlMCmAS+O4WxneGc7+BSfEgNrY4BbnouWPg4+JXAa6r939U8yXJsM4QGPMcXATZK2mSZgfkOgJIGDEQAIAGKAGCAGeouBT5VM+BwbAqsJbLVy692YFDhj5YyTGCAGSsXAi1cnYP6GQGkCZ6H+e1P/pZIOx6XgEQMxYuD+pRM+x4fAagJHIgAQAMQAMUAMZI+Bi1YnXv6GQAQCOzLxs098zr5inH3hB/xQMgaOj5DwsQEC6wlcgAhABBADxAAxkDUG9l6fePkfAhEIHM7EzzrxS551cGzOeomB8jFgy5tvECHZYwME1hOwh+/Y91MkChgQA8QAMZA+BvZfn3T5HwKRCDwZAYAAIgaIAWIgeQycHinRYwsE5hGwRSpQ/zAgBogBYiBNDNjKf7vNS7i8DoFIBPZFACCAiAFigBhIFgMnR0rw2AKBZQQ+yORPNvk5i0pzFgVHONYYA9dJstus2SBQDYEHsjwwAgARSAwQA+4YeH01WR9DIbCKwHFMfvfkr/GMBZs50yYG0sTANyXdeVVO5U8IVENgQ0kfQgQgAogBYoAYaB0DP5K0czXZHkMhMIPAHSR9kcnfevJzBpXmDAqOcKwxBm6U9PgZ+ZSXIFAdAbuA5TJEACKAGCAGiIFGMXBUdVkegyGwgIDdGng9k7/R5K/xjAWbOdMmBtLEALf8LSgkvFUvgUMQAAgAYoAYIAbmxsBnJW1ab4rHcggsJvAKJv/cyc8ZVJozKDjCscYY+Kqk7RanT96FQP0EniXJFreocZJiM34jBoiB1DHwUUlb1p/aGQEEmhHYR9L3EQGIIGKAGBh5DNhCPxs1S5vsBYHhELinpPNHPvlTn0nQH2enxEAdMWCfgj5zOOmckUCgPYHNJb0PEcBZIDFADIwoBr4nae/26ZIWEBgegQ0mQzpW0k9HlAA4S6vjLA0/4afUMfAZSTsML40zIgj4CNxnsvTl3yECOBMkBoiBAcaAret/kCQ74WGDAATmENhT0tkDTACpzyToj7NTYiB+DPxA0pGSNpmT73gZAhCYQeAJkr6CEOBskBggBiqMgZ9MFvWxJ6JuMSO38RIEINCAgN0e8zuSLqgwAXB2Fv/sDB/ho9QxcPlkQZ+3SNq+QX5jFwhAoCEBe6iQfZR2lqQbEAScFRIDxECQGPjWZCGfEyTtJ2njhvmM3SAAgY4EtpJ0sKTTJF0dJAmkPpOgP85OiYG4MfB5ScdI2rVjDqMZBCCQgIA9PGMXSQdIsgcOvVTSSZI+IOlcSZfwiQFniohEYqBFDFwl6UJJZ0p618p3+c+TdKCkvSRtmyBv0QUEqibw/wHqzc1h8hhEiAAAAABJRU5ErkJggg==;" vertex="1" parent="1">
          <mxGeometry x="687.5" y="144" width="85" height="85" as="geometry" />
        </mxCell>
        <mxCell id="hlimM6l5dyAwngFtbMl4-31" value="" style="group" vertex="1" connectable="0" parent="1">
          <mxGeometry x="665" y="507.75" width="130" height="130" as="geometry" />
        </mxCell>
        <mxCell id="hlimM6l5dyAwngFtbMl4-24" value="" style="shape=image;verticalLabelPosition=bottom;labelBackgroundColor=default;verticalAlign=top;aspect=fixed;imageAspect=0;image=data:image/png,iVBORw0KGgoAAAANSUhEUgAAAgAAAAIACAYAAAD0eNT6AAAAAXNSR0IArs4c6QAAIABJREFUeAHtnQu4BlVV9/9cRBAVFBFQ0BBvKYJgIhfxCyMj74qWVJIKBJoXPq2kRMRSAzXlUwO18hakZJi3MoEMxbyAKKEi5jUS0TAuinIR6HsXnpfOObyXmVl7z1575jfPc55zzvvO3rP2b6291n/ed2aPxAYBCGwraS9JB0p6nqTjJL1L0pmSLpR0laT/4QcGxAAx0CAGbpB0iaRzJX1A0kmSXirpEEkHSNplkmM2Je1CAALlCOwq6RhJn28woSn+CCBigBhIGQNXSzpN0sGStiqXBjkyBMZBYGNJ+0k6QdK3KPqcyREDxECQGLBPDM6SdKSkHceRjhklBPohsL2kt0i6PMhkT3kWQV+clRIDw4uBCyT9jqSN+kmRHAUCwyOwhaQ/lfQTCj9nesQAMVBhDHxF0hOGl5oZEQTyEdhk5aO0H1Q44TmbG97ZHD7Fp94YOFvSnvlSJj1DoH4CG0g6aHJRzTcp/JztEQPEwABj4O8k3af+VM0IIJCWwA6T22s+M8AJ7z1zoD1nn8TAsGLgp5PUeawkO+Fhg8DoCewt6XsUf874iAFiYEQx8D5Jm48++wNg1ASeKem6EU16zuaGdTaHP/GnJwbOl3TPUVcABj9KAnZ7zOsp/JzxEQPEwMhj4PuS9hllFWDQoySw5WTZ3o+OfNJ7zhpoy1knMTCsGLBPQZ81ymrAoEdFYLvJlf5fpfhz1kcMEAPEwK1i4BWjqgYMdlQE7OEZn2XS32rSczY3rLM5/Ik/PTFgDxxig8DgCJxM8af4EwPEADGwMAaul7Tv4LI/Axo1gaOY9AsnveeMgbaccRIDw4qBy3io0Kjr5aAG//jJs7RvRAAgAIgBYoAYaBwDX5R0h0FVAgYzOgI7S/oRk77xpOdMblhncvgTf3pi4EOSNhxd1WDAgyBwZ9b1p/Aj/ogBYsAVA8cNohowiNERYKEfzn48Zz+0JX6IAekGSQ8cXfVgwFUT2JElfl2qn8RH8SMGiIFpDHyw6mqA8aMjwC1/JK9p8uI3sUAM+GOAWwNHV0brHPBukm7iez8+ASAGiAFiIFkMfKrOcoDVYyNwOpM+2aTnzMl/5gRDGA4lBp48tmLCeOsisD/Fn+JPDBADxECWGLhI0sZ1lQSsHQuBDSSdx8TPMvGHcgbDODgbJwZ8MXD4WAoK46yLwN4Uf4o/MUAMEANZY+CCusoC1o6FwKuZ+FknPmdOvjMn+MFvKDFgt1mzQSAUga8hABAAxAAxQAxkj4EjQ2V+jBk9AVupaijqmnHgS2KAGIgcA2eNvuIAIBSBlyAAEEDEADFADPQSA7Y88FahKgDGjJrA55j4vUz8yGcl2MZZMzHQXwwcPOqKw+DDENiB4k/xJwaIAWKg1xg4LUwFwJBRE3guE7/Xic9ZVn9nWbCGddQYuFrSpqOuPAw+BIG3IQAQAMQAMUAM9B4Du4SoABgxagIfYeL3PvGjnpVgF2fMxEB/MXDAqCsPgw9B4PygAuBGSSdKeqKk7UOQwggIQKAGAptI2l3SYcGXNz+kBpjYOGwC3w8oAL4h6eHDxs7oIACBHgjYw3eOlWS33kX7dOOlPYyfQ0BgLgGbHDcFmxh2ccxOcy3mDQhAAALtCZgIiCYATmo/DFpAIB0B+2g92qR4drrh0RMEIACBmwnYyU60p51+AN9AoCSBhwYTANfyvOyS4cCxITBoAnZNQKQTnnMHTZvBhSfw+GAT4pzwxDAQAhColYBdGBhJAFxSK0jsHgaBQ4NNCFuTgA0CEIBADgJ2d0AkAWAXJrJBoBiBI4JNiDcXI8GBIQCBMRCIJADMFjYIFCOAACiGngNDAAIFCCAACkDnkDEJIABi+gWrIACBPAQQAHm40muFBBAAFToNkyEAgc4EEACd0dFwaAQQAEPzKOOBAAQWEUAALKLDe6MigAAYlbsZLARGTwABMPoQAMCUAAJgSoLfEIDAGAggAMbgZcbYiAACoBEmdoIABAZCAAEwEEcyDD8BBICfIT1AAAL1EEAA1OMrLM1MAAGQGTDdQwACoQggAEK5A2NKEkAAlKTPsSEAgb4JIAD6Js7xwhJAAIR1DYZBAAIZCCAAMkClyzoJIADq9BtWQwAC3QggALpxo9UACSAABuhUhgQBCMwlgACYi4Y3xkYAATA2jzNeCIybAAJg3P5n9KsIIABWweBPCEBg8AQQAIN3MQNsSgAB0JQU+0EAAkMggAAYghcZQxICCIAkGOkEAhCohAACoBJHYWZ+AgiA/Iw5AgQgEIcAAiCOL7CkMAEEQGEHcHgIQKBXAgiAXnFzsMgEEACRvYNtEIBAagIIgNRE6a9aAgiAal2H4RCAQAcCCIAO0GgyTAIIgGH6lVFBAAKzCSAAZnPh1RESQACM0OkMGQIjJoAAGLHzGfpaAgiAtTz4DwIQGDYBBMCw/cvoWhBAALSAxa4QgED1BBAA1buQAaQigABIRZJ+IACBGgggAGrwEjb2QgAB0AtmDgIBCAQhgAAI4gjMKE8AAVDeB1gAAQj0RwAB0B9rjhScAAIguIMwDwIQSEoAAZAUJ53VTAABULP3sB0CEGhLAAHQlhj7D5YAAmCwrmVgEIDADAIIgBlQeGmcBBAA4/Q7o4bAWAkgAMbqecZ9KwIIgFsh4QUIQGDABBAAA3YuQ2tHAAHQjhd7QwACdRNAANTtP6xPSAABkBAmXUEAAuEJIADCu2hYBm4maSdJe0jaM9jP8ZIiTYj3BeMTzV/YE28O5fCJ5QrLGZY72NISiJTvzBa2yglsIml/Sc+V9CpJ75B0uqQvS7oiWIGNFvzYE0uA4Y94/rAcYrnEcorlFssxlmss51juYWtHIFqMt7OevUMQ2ELS0yS9R9JVFPlQnyJEm+DYE6+oDsUnlnssB1kuspzEtpxANN8vt5g9QhDYXtJzVpT49RR9ij4xQAwEigHLSfYpgeUoy1VsswkgAGZz4dU5BHaXdEagiR4tgLGHM1xiIF4MWM6y3MW2lkC0WF1rHf+FIbCjpFMk3UTx50yPGCAGKowBy12Ww34uTFYtbwgCoLwPQltwZ0mvk3RdhRM+WnBjT7wzQ3wyPp9YLrOcZrlt7Fu0+B+7P8KMf1NJL+bKfc70EH7EwEBjwO4osBxnuW6sGwJgrJ5fMO77Tq6kvWigkz5awGPP+M5A8Xksn1uus5w3xi1aLI7RB6HG/CjO+jnjQ/wRAyOLAfs0wHLf2DYEwNg8vmC8L5B0w8gmfrQJgD2xzg7xx3j8YbnPcuCYtmjxPSb2YcZ6G0l/QeHnrI8YIAaIgZtzoeXEMWwIgDF4ecEYt5b0CSY9iZ8YIAaIgVtiwHKi5cahbwiAoXt4wfgswL/OpL9l0kebDNgzno+f8XU8X1tuHLoIiBZ3C8oVb6UkYB9xceYfL+lEm5DYQ4yMOQYsRw7564Bovk1Z4+hrAQG+8yexR5v82ENMRowBy5VD3aLxHirnUOOyK12jOR578AkxQAxEjYGh3h0QjXeoQjlEY+xeV271I9FGm/jYQ0xGjgHLmUNcJyAa8yHW3DBjstWubMGLaE7HHnxCDBAD0WPAcufQVgyMxjxMsRyaIbbeNcv7kmSjTXjsISZrigHLoUN6dkA09kOru2HGYw+9iOZs7MEnxAAxUFsMWC4dyhaN/VC4hhqHPfaSj/5JtNEmO/YQkzXGgOXSoTxKOBr/UIVzKMbYs6+jORp78AkxQAzUGgOWU4ewReM/BKahxrCjpOsQAAggYoAYIAaSxYDlVMuttW8IgNo9uMT+U5j0ySZ9tMmCPZxBEwPlYsBya+1btPipnWco+3eXdBMCAAFADBADxEDyGLDcajm25g0BULP3lth+BpM++aSPNmGwp9wZIOxhbzm25i1aDNfMMpTt21P8Kf7EADFADGSPAcu1tW4IgFo9t8Tu5zDxs0/8aJMHezgjJQb6jwHLtbVu0eKlVo7h7D4dAYAAIAaIAWIgewxYrq11QwDU6rkFdm8h6XomfvaJH23yYE//Z38wh7nlWsu5NW7R4rdGhuFsfhrFn+JPDBADxEBvMWA5t8YNAVCj15bY/B4mfm8TP9oEwh7OSImB/mPAcm6NW7RYqZFhKJs3kXQVAgABQAwQA8RAbzFgOddyb20bAqA2jy2xd38mfW+TPtrkwZ7+z/xgDvNpDFjurW2b2h7ld238wtn7XAQAAoAYIAaIgd5jwHJvbVuUwj+1ozZ+4ex9VQUT/0pJ50j6DD8wIAaIgSUxYLnCcsa0SET9bbm3ti0ay9r4hbP3HUEnij096xhJ95O0QThqGAQBCEQmYDnDcoflkKhPN7XcW9uGAKjNY0vsjbgA0IWSdl5iN29DAAIQaELAconllGjFq8YFgaIxbOJ/9llA4MvBJoapdYr/AofxFgQg0JqA5ZRonwRY7q1tQwDU5rEl9l4RTADYR3ZsEIAABFITsNwSqYBZ7q1ti8TPbGFzENgs2IQwh9r3dmwQgAAEUhOw3BKtgFkOrmmLxq8mduFs3SnYhLArd7ngL1yYYBAEBkHAcku0uwMsB9e0IQBq8tYSW/cIJgDs9h02CEAAArkIWI6JVMQsB9e0RWJntrA5COwZbDLYff5sEIAABHIRsBwTqYhZDq5pi8QOAeCMHASAEyDNIQCBqgggAHzuQgD4+IVqjQAI5Q6MgQAEMhNAAPgAIwB8/EK1RgCEcgfGQAACmQkgAHyAEQA+fqFaIwBCuQNjIACBzAQQAD7ACAAfv1CtEQCh3IExEIBAZgIIAB9gBICPX6jWCIBQ7sAYCEAgMwEEgA8wAsDHL1RrBEAod2AMBCCQmQACwAcYAeDjF6o1AiCUOzAGAhDITAAB4AOMAPDxC9UaARDKHRgDAQhkJoAA8AFGAPj4hWqNAAjlDoyBAAQyE0AA+AAjAHz8QrVGAIRyB8ZAAAKZCSAAfIARAD5+oVojAEK5A2MgAIHMBBAAPsAIAB+/UK0RAKHcgTEQgEBmAggAH2AEgI9fqNYIgFDuwBgIQCAzAQSADzACwMcvVGsEQCh3YAwEIJCZAALABxgB4OMXqjUCIJQ7MAYCEMhMAAHgA4wA8PEL1RoBEModGAMBCGQmgADwAUYA+PiFao0ACOUOjIEABDITQAD4ACMAfPxCtUYAhHIHxkAAApkJIAB8gBEAPn6hWiMAQrkDYyAAgcwEEAA+wAgAH79QrREAodyBMRCAQGYCCAAfYASAj1+o1giAUO7AGAhAIDMBBIAPMALAxy9UawRAKHdgDAQgkJkAAsAHGAHg4xeqNQIglDswBgIQyEwAAeADjADw8QvVGgEQyh0YAwEIZCaAAPABRgD4+IVqjQAI5Q6MgQAEMhNAAPgAIwB8/EK1RgCEcgfGQAACmQkgAHyAEQA+fqFaIwBCuQNjIACBzAQQAD7ACAAfv1CtEQCh3IExEIBAZgIIAB9gBICPX6jWCIBQ7sAYCEAgMwEEgA8wAsDHL1RrBEAod2AMBCCQmQACwAcYAeDjF6o1AiCUOzAGAhDITAAB4AOMAPDxC9UaARDKHRgDAQhkJoAA8AFGAPj4hWqNAAjlDoyBAAQyE0AA+AAjAHz8QrVGAIRyB8ZAAAKZCSAAfIARAA35bShpO0kPkfQ4SYdKOiLYz/GSIjn0m8H4RPMX9sSbQzl8crikgyQ9QtK9Jd2uYc5ht+UEEADLGS3aI1K9MFuKb9tIOkzSiZLeL+ncyf+XSLohWHGN5jjsiSW+8Edsf1wp6cuSzpD0zklueZmkPSRtUDwD1mUAAsDnr2h5wjeajq3vL+nFkj4l6SYKfahPEaIFKPbELqy1+8dONk6SdICkTTrmszE1QwD4vB1tvvhG07C1qey9JdlH5hdR8Cn4xAAxEDAGfijpVEm/IWmLhrltbLshAHweH50A2H/yHf55ASd7NEdgD2e6xECcGDAxcLSkzX35fnCtEQA+l0ab477RLGi92+Ss/3QKP2d6xAAxUHEMXCrJLirceEGuG9NbCACftwcvAHacXHl7Mt/tk/QrTvrRJin2lP9kwL66fLIv9w+iNQLA58Zoc9k3mlWt7zz53uz1kq4j8VP8iQFiYKAx8OnJnQT7rMp7Y/sTAeDz+CAFwAMl2T3o0QaHPfiEGCAGUsfAjZJ+z1cHqm2NAPC5LnUsevvzjWZy3/5jJNkFM15DaA9DYoAYqCkG3j7CWwcRAL6SGS2+XaMxFWxqONqgsAefEAPEQB8x8MnJImZ3dWXRuhojAHz+6iMm2xyj02hswQxTv20OxL7wIgaIgSHGwLcl7dIpk9bXCAHg81m0+G89GlO7pnqjDQR78AkxQAyUioEfSXpC62xaXwMEgM9npeJz3nFbjeaOki6k+CN+iAFigBi4VQzY16FDFwEIgFYl81Y7zyvEpV6/lYHzXtho8vCMf2TS32rSl3Icx+VslxiIFwP2ScCQvw5AAMyrkM1ejzZnm1kt6XUUf4o/MUAMEANLY8CuCRjqhYEIgMYlc+aOVQqAQ5j0Syd9NMdiT7yzQ3wyHp/YdVJDfLogAmBmXW/8YrQcsNTwfSVdjwBAABADxAAx0CoG7E6poW0IAJ9HqxIAtq7/ZUz6VpM+moOxZzxnnfg6nq+HtmIgAmAkAmBDSZ+n+FP8iQFigBjoHAN2Z8CQnh2AABiJAHgGk77zpOdMLN6ZGD7BJ6ViwB4gNJQNAeDzZKkYnHfcmaPZVNLFCAAEADFADBADSWJgKI8SRgDMLJmNX5xXiEu9PtPw32fSJ5n0pZzKcTnbJQZixcBFkjaemW3rehEB4PNXtHl5q9HcSdLlCAAEADFADBADSWPg8Ftl2/peQAD4fBZeALyaSZ900kdzOPbEOjPEH+Pxx6WSNvfVj+KtEQA+F0Sb72tGs4OkaxAACABigBggBrLEwNFrMm59/yAAfD4LLQDewqTPMumjOR17xnPWia9j+fqHkrbw1ZCirREAPvzR5uMto7ELVPjuP1ayiBYs2EN8EAP+GPiNW7JufX8gAHw+izZ/bhnNfpz9c/ZPDBADxED2GDj1lqxb3x8IAJ/PwgqAE5j42Sd+NOdjj/9sDoYwbBsD9jVArQ8KQgAMVAB8CwGAACAGiAFioJcYOMBXR4q1RgD40LcVi7n3v3k0uzLpe5n0uZ1J/5yNEgN1xMBJvjpSrDUCwIc+2vy8eTTHIAAQAMQAMUAM9BYDl0jawFdLirRGAPiwhxQAPPWvjrOGaMGDPcQNMdA9Bvbw1ZIirREAPuzR5ou2RfX3pvqjOR97uidv2MHOGwMv89WSIq0RAD7s3phJ3V57IQAQAMQAMUAM9B4D7/TVkiKtEQA+7KkLuLc/HRh84l8r6RxJb5P0Zn5gQAwQAw1i4MOSbO19b4LM2f4MXy0p0hoB4MOeM5669K3nBZ0kV0t69kAeoekLGVpDAAJdCewi6XNBc9yXuw6qYDsEgA9+lyKds42OCzg5viFpJx9nWkMAAhC4mYAtc/6mgHnuygr9gwDwOS1nMe/St94VbGLcKOnhPsa0hgAEILCGgImAiJ8E3G6NlfH/QQD4fNSlSOdsozODCYATfXxpDQEIQGAmAfs6IGcy7dL3vWdaGvdFBIDPN11iJGcbXRhsUjzRx5fWEIAABOYSiHZh4CPmWhrzDQSAzy85i3mXvnVVMAGwvY8vrSEAAQjMJWB3B3RJlLnaHDTX0phvIAB8fskVR137DTUZbBBsEIAABHIRsFuJuybLHO0OzzXQTP0iAHxgc8SQp89Qk8EGwgYBCEAgF4FoAuCIXAPN1C8CwAfWU6xztEUA+PxJawhAoCICCACfsxAAPn45irinTwSAz5+0hgAEKiKAAPA5CwHg4+cp1jnaIgB8/qQ1BCBQEQEEgM9ZCAAfvxxF3NMnAsDnT1pDAAIVEUAA+JyFAPDx8xTrHG0RAD5/0hoCEKiIAALA5ywEgI9fjiLu6RMB4PMnrSEAgYoIIAB8zkIA+Ph5inWOtggAnz9pDQEIVEQAAeBzFgLAxy9HEff0iQDw+ZPWEIBARQQQAD5nIQB8/DzFOkdbBIDPn7SGAAQqIoAA8DkLAeDjl6OIe/pEAPj8SWsIQKAiAggAn7MQAD5+nmKdoy0CwOdPWkMAAhURQAD4nIUA8PHLUcQ9fSIAfP6kNQQgUBEBBIDPWQgAHz9Psc7RFgHg8yetIQCBigggAHzOQgD4+OUo4p4+EQA+f9IaAhCoiAACwOcsBICPn6dY52iLAPD5k9YQgEBFBBAAPmchAHz8chRxT58IAJ8/aQ0BCFREAAHgcxYCwMfPU6xztEUA+PxJawhAoCICCACfsxAAPn45irinTwSAz5+0hgAEKiKAAPA5CwHg4+cp1jnaIgB8/qQ1BCBQEQEEgM9ZCAAfvxxF3NMnAsDnT1pDAAIVEUAA+JyFAPDx8xTrHG0RAD5/0hoCyQhsIumekvaSdICk3SRtI2mDZEegIwSALwYQAD5+OYq4p08EgM+ftIZAKwKbS3rSpMWxkt4q6R8kfUHSf0m6SZo5H6+XdPFEFFjyPU3SGyUdJenhkjZsdXR2RgD4YgAB4OPnKdY52s5MODkO1LRPH15aQyAeATuLP1TShyRdM6fIN50f6/cz4fBXkh4vabN4Qw9nEQLA5xIEgI/f+vlb+n8EgM+ftIbATAL3k/QHkj4l6cbERX9e0vixpL+X9AxJd5lpFS8iAHwxgADw8Zs3d0u9jgDw+ZPWEFhDwL63P72ngr8oadjXBvZVwV3XWMc/CABfDCAAfPwWzdkS7yEAfP6kNQRuJrCjpFMWfI9fYnLbMX84sekYSXbtAZuEAPBFAQLAx69UHph3XASAz5+0HjkB+6j9BEnXBTjrnzfJ7fXvSXq2pI1H7i8EgC8AEAA+fovmaIn3EAA+f9J6pATsgrs/knRV8MK/Pql8VdKBI/WZDRsB4HM+AsDHb/18LP0/AsDnT1qPkMD2ks6rrPCvTzR/KcnWHRjbhgDweRwB4OO3fh6W/h8B4PMnrUdGYE9Jl1Ze/KdJ52xJW4/MfwgAn8MRAD5+07kX5TcCwOdPWo+IwMGTBXiuHUjxnyagb0vaZUQ+RAD4nI0A8PGbzrsovxEAPn/SegQEbLW91wys8K9OQFevrE44AldyDYDTyQgAH8DV8y7C3wgAnz9pPXACd1xZrjfCZM1pgy1D/NKB+9KGxycAPicjAHz8cs7hLn0jAHz+pPWACdhFcvY9eZeJVWsbe0bBkDcEgM+7CAAfv2h5IVxy8+GlNQTSEbAr5aNN2Nz22CcBT0mHMFxPCACfSxAAPn6552/b/sMlOB9eWkMgDYEjR1j8p8nDrgnYNQ3GcL0gAHwuQQD4+E3nWJTfCACfP2k9QAKPknTDiAWAJSe7O2CItwgiAHwTFgHg4xel8E/tQAD4/EnrgRG4r6QrRl78p8nhE5JuMzD/IgB8DkUA+PhN51aU3wgAnz9pPSACW0qypXKjTM4Idrx1QP61oSAAfA5FAPj4RZjTq20Il+x8eGkNge4E3kPxn5kPntYdabiWCACfSxAAPn6ri2+Ev2dO+JKG+fDSGgLdCOxB8Z+bC+x6gNt2wxquFQLA5xIEgI9fydo669hzJ/2snft4zYeX1hDoRuDjCICFueBF3bCGa4UA8LkEAeDj10cNbXOMhZO+TUep9vXhpTUE2hN4LMV/aR64XNKd2qMN1wIB4HMJAsDHL1WdTNXP0omf6kBN+/HhpTUE2hHYaLLwzZcQAI3ywGvboQ25NwLA5xYEgI9f0zrY136NJn5fxthx2CDQJ4FnUfwb5wB7EuLP9emcDMdCAPigIgB8/PqspU2O1XjyN+ksxT4+vLSGQHMCm0n6DgKgVQ44pTnekHsiAHxuQQD4+KWokSn7aDX5Ux54Xl8+vLSGQHMCz6P4t57/9qyA+zVHHG5PBIDPJQgAH795da/U660TQG5DfXhpDYHmBM5CAHSa/0c1RxxuTwSAzyUIAB+/3PWzbf+dEkDbg7TZ34eX1hBoRmAr1vvvPPc/3QxxyL0QAD63IAB8/NrUwj727ZwEchnnw0trCDQjcDBn/53nvn0NsG0zzOH2QgD4XIIA8PHLVTe79ts5CXQ94LJ2Pry0hkAzAqchAFxz/7BmmMPthQDwuQQB4OO3rP71/b4rCeQw1oeX1hBYTmBTSfbM+xzxO5Y+P7wcc8g9EAA+tyAAfPyi5YdwSdCHl9YQWE7gMRR/97y/RtLmy1GH2wMB4HMJAsDHDwGwJPn68NIaAssJ2CNuo03EGu158nLU4fZAAPhcggDw8Ys2z8MlQh9eWkNgOYGvIQCSzPs3Lkcdbg8EgM8lCAAfPwTAkuTrw0trCCwnYB9fR5uINdrz98tRh9sDAeBzCQLAxy/aPA+XCH14aQ2BxQTuTPFPNuetGNS2IQB8HkMA+PghAJYkYB9eWkNgMYEHLYm/aBM0sj0XL0Yd8l0EgM8tCAAfv2jzOdnZQKqB+fDSGgKLCfwKAiDZnL9e0gaLcYd7FwHgcwkCwMcvVZ1M1U+yZJDMIB9fWkNgIQEe/5v2+oetF9KO9yYCwOcTBICPX6o6maofBIDPn7SujMDRfAKQdM7vUpn/EQA+hyEAfPxSFe5U/SRNBimM8uGlNQQWEzgRAZB0zh+wGHe4dxEAPpcgAHz8UtTIlH0kTQYpDPPhpTUEFhOwW9dSxCl9/IzjMxbjDvcuAsDnEgSAj1+0vBEuGfrw0hoCiwmcjABIOuefshh3uHcRAD6XIAB8/BAASxKwDy+tIbCYwPFL4i/aBI1uzz6LcYd7FwHgcwkCwMcv2nxOejaQYnA+vLSGwGICL0AAJJ3zOy7GHe5dBIDPJQgAH78UNTJlH0mTQQrDfHhpDYHFBOwj6xRxSh8/42iPVq5pQwD4vIUA8PGLljfCJUMfXlpDYDGBvREAyeb85YtRh3wXAeBzCwLAxw8BsCQB+/DSGgKLCdxzSfxFm6CR7fnyYtQh30UA+NyCAPDxizafk52WQxAwAAAgAElEQVQNpBqYDy+tIbCYwCaSbkIEJJn3ZyxGHfJdBIDPLQgAH79UdTJVP0kSQSpjrB82COQmcBkCIMm8f1duR2XoHwHgg4oA8PFLWStT9JUkEaQwZNqHDy+tIbCcwFkIgCTz/qjlqMPtgQDwuQQB4OM3rXNRfidJBCkH48NLawgsJ/BCBECSef+A5ajD7YEA8LkEAeDjl7JWpugrSSJIYci0Dx9eWkNgOYF7IwDc8/5ryzGH3AMB4HMLAsDHb1rnovx2J4LUA/HhpTUEmhGwK9hTx+6Y+vuzZpjD7YUA8LkEAeDjFy1HhEuCPry0hkAzAq9CALjm/iOaYQ63FwLA5xIEgI8fAmBJ4vXhpTUEmhF42JI4jDZRI9ljd1Fs1AxzuL0QAD6XIAB8/CLNY7PFdRaQYzA+vLSGQDMCG0j6bsD4zzGnUvf5jmaIQ+6FAPC5BQHg45d6Lnr7QwD4/Enrigm8BQHQaf4/qWKfIwB8zkMA+Ph5C3bq9p0SQGojVvfnw1tv690lvVzSWyW9V9KZkj48Gc6xkh4taet6hxbW8l9gVcDW8/9iSbU9AGh1ACIAVtNo/zcCoD2z1S1W17oIf7dOALmNXg1r6H9vIemPJF3Y4Ez0RkmnTH7uM3QoPY/vPQ3Y5475mvr/7Z79k/pwCAAfUQSAj1+0uY4A8Pmzc+t9JH2rQ/G5QdJfSdqy85FpuJrAThMRdn0HP0SbyH3Yc76kDVfDq/BvBIDPaQgAH78+5mmbYyAAfP5s3douPrOP+q2Qt3HU+n2/KOnurY9Og1kE3uD0xXrfDPX/R82CV9lrCACfwxAAPn7RcoOrCOUYjA9v/NYvS1hs/kPS/eMPObyFdn3FVQn9kmNelO7zo+G92MxABEAzTvP2QgDMI9Ps9dLzeP3xEQDN/JZkrwMzXHRmImDzJNaNu5OXIADm5gK7/mTXgYQHAsDnSASAj9/6Alz6/7mTvpRhPrxxW+8s6ceZisxr4w67GstuJ+mSTP4pNZdSHfed1XhxuaEIgOWMFu2BAFhEZ/l7qeZkqn4QAMt95t7DvvfPOXF+OqAzNDdsRwd2f/tNiIA1OeFSSds5mEZrigDweSRnHutS1Pb0Daf31l3GmLPNmsme80BN++7dIz0c8PAeisrpPYxjDIc4pgdfNZ0Lpfe7VlJtCXZZjCIAlhFa/D4CYDGfZe+WntPrj48AWOYx5/t3lXR5T0VlF6etNP8ZgVN78tf6yRjt/6cPMCAQAD6nIgB8/KLNcQSAz59LW/91j8Xk7UutYYcmBDaT9Lke/RYtKZg9r24CqsJ9EAA+pyEAfPyizXUEgM+fC1vv13MRuU7Stgst4s2mBGyNhbE+LMiWoK59wZ95fkYAzCPT7HUEQDNO8/ZCACwpivPA1fb6JpK+smSsOYLhT2oDFdjePSRdU8CHOeKiaZ+2LPUdA/vEaxoCwEcQAeDj13Qe9rUfnwD4/Dm39dGFCoc9q90+wmZLQ8DWbrCL4fqakCWP821JtjTykDcEgM+7CAAfv5Lze9axwyU2H94Yre9V+MzR7jpgS0dgL0nfG7gIOHskT5xEAPjmBQLAx29WES75GgLA58+ZrT9SuFjYVw+29gBbOgI7SPpCYb/mShRvk2RfWY1hQwD4vIwA8PHLNYe79osA8PnzVq2fGqRIPOZWlvGCl4AtuXxaEP92nfCr29kSvy/0QqmsPQLA5zAEgI/f6vkX4W8EgM+fa1rfIdBysmeusYx/UhGwT1b+eAAiwB5+9KupoFTUDwLA5ywEgI9fhKK/2gYEgM+fa1qfEKwwDOUBLmsgB/nn1yT9IJi/V0/sRX//m6SfD8KxbzMQAD7iCAAfv0XzssR7CACfP29pvZukG4IVhHfcYh1/5CBgt8u9MuNDnlInBHty5MEDvse/iY8RAE0ozd8HATCfTZN3Us9pb38IgCZeW7KPLZry2WDF3wLDFgYa0oNclrih2Nt3k/TWgAJwmhz+W9KLJN22GKE4B0YA+HyBAPDxm87JKL8RAD5/3tz62QGL/zTAXpFgfHTRjIB9rP7+QLFgixgdL2nLZuaPYi8EgM/NCAAfv2lejvIbAeDzp7aRdEWgpL8+sOx7ahYGcjq5ZfN9JL1b0pWF4sIW9HmdpO1b2j2G3REAPi8jAHz81ufn0v8jAHz+1CmFknybwDnCOUaadyNwG0mPmiyw8+eS/jNznHx+0v/LJHHh52JfIQAW81n2LgJgGaHF77fJ233siwBY7K+F7/5S5qSeKgAuYmGghX7s682HSLJnNdhV+N4LRu3jfbvV87mS7tHXAAZwHASAz4kIAB+/VDk9VT8IgI7+tAuqvlqJALBgeWzHcdIsD4GNJhcO2sWDD52sMPgESc+RZNdr2COdPyrJEu0HJJ00EQv2XIlnTV47YLIQ0YMkbZXHpFH0igDwuRkB4OOXqnCn6gcB0NGfx1RU/C1YPtZxnDSDwJAIIAB83kQA+PilKtyp+kEAdPDnvQs/7Ker8x/cYaw0gcCQCCAAfN5EAHTnZxflds3dOdrZaqChDLJB1rDZR7Q5HJK7z3fVABcbIZCRAALABxcB0J3fE4PVjQttKLmLTtv+u+Ptp+WvB2TWlPH1K98790OKo0AgHgEEgM8nCIDu/E4MVjtufl5M0+LR137d8eZvaUu/fjeYE9v65VX5MXEECIQlgADwuQYB0I3fwyXZ0zfb5uuc+9/8iXDOA3Tpuxveflq9IZgDu/C1ZWFv1w8ujgKBcAQQAD6XIADa89tJ0jcC1o7jbChdikjONu3x9tPC7uGOpuC6+sGWLmaDwBgJIAB8XkcANOe3sSTLtVcHrLNWO55nQ+laRHK1a463vz3tYT/nBmTV1Qe2foE9154NAmMjgADweTyaAHifJPNppJ+3STpH0rXBa8aBFgpdi0iudr7wzNPaVlvLNd5S/T4uDyp6hUBoAggAn3uiCYBS+XMIx93LQiHaQHzhmb71tgUf6pLTN/+SHhU9QiA8AQSAz0UIgHg1s2udsNqGAFgyH+ypbl0BR2+325Kx8zYEhkYAAeDzKAJgGPXAHh528xatSE3tivD7lwdc/M3vfx0BMjZAoEcCCAAfbATAMASALWV/84YAmJJY+9se9vO1gQsAWxjo7muHzX8QGDQBBIDPvQiAYQiAWx4bjgCYPSGOHXjxn/r9T2cPn1chMEgCCACfWxEA9QuAb60OgWkhiPJ7tW2l/r5PBbdwpPLX5ZI2LwWa40KgZwIIAB9wBED9AuCE1SGQqpCk6me1baX+PmMkZ/9Tn/1uKdAcFwI9E0AA+IAjAOoXAPutDoFpEYjye7VtJf4+qHDxv6TA8e1aB1vsiA0CQyeAAPB5GAFQtwCwT3xthcJbtiiFf2rHLYYV+GMLSZcWKMDTsdsnD6XuPHhCAd4cEgJ9E0AA+IgjAOoWAG9Z7/5p8Ynye719ff7/5wWLvy0badce2HZBATs+vnJsfkFgyAQQAD7vIgDqFQDXSNphvfujFP6pHevt6+v/hxZ+2I/ddTDdnllAABh/e+ARGwSGTAAB4PMuAqBeAfDqWa6fFt4ov2fZmPu1jSSdV6joGnf7Dt7WHZhu9neJryJOnhrAbwgMlAACwOdYBECdAsC++7/TLNdHKfxTO2bZmPu15xcs/jZu+95//XZ0AZtYGGi9F/h/aAQQAD6PIgDqFAC/P8/t08Ib5fc8O3O9fjdJVxUotlPe9qyBWdtdJP2kgF3HzTKG1yAwEAIIAJ8jEQD1CYCLJW06z+3TQhTl9zw7c71+aoEiO2VtwmO7BQMrkaxYGGiBQ3iregIl5tR0vs/6fURlRBEA9QmAZyyKsVlBWfK1Rbamfu9XChZ/Y/zcJQO6v6SbCti4zK4lZvM2BMISQAD4XIMAqEsA2FP/Fq7xUrLYzzq2Lzybt7aPRL5eoLhOx3zuMsesDOXDBWw0LguDpjlm9oRAKAIIAJ87EAD1CIDLJO24zN3TghTl9zJ7U73/xwUK65TxjS1uuXtkITufmAo0/UAgEAEEgM8ZCIA6BIBd0L1vE1dPi1KU301s9u5zP0nXFSqsxvmNLQdwfgFbP9HSRnaHQA0EEAA+LyEA6hAAhzR1c5TCP7Wjqd2e/f65QEGdju+7ku7Y0viDC9n7Cy3tZHcIRCeAAPB5CAEQXwC8ro2Lp4Upyu82tnfZ9zcLFdMp31/vYPQmkkw4TPvo6/ffdLCVJhCITAAB4PMOAqD/PNwm3/+jJFvYrvHWpvM+9m1seIcdt5T0vQKFdMrt9A42T5v8UQG7fypp+6kB/IbAAAggAHxORADEFQAXdvh0ufezymkxnPfbF56LW59UoIhOx2kP+7n3YvMWvntnST8uYP/M9aMXWhrnzT0k2eOdXyjptZOHLZ0iye6q+ENJD5a0QRxTsaQnAggAH2gEQEwB8ElJd+3i2mmBivK7yxiatHlY4Yf9HNPEyCX7nFhAAFwxKZ63X2JXpLdvNxFKtuzlvzdgZc9bePucpZgjjQlb0hFAAPhYIgDiCQDLYfY1cactSuGf2tFpEEsa2XciX2hQEKY2pP791XUP+1li7ty371toYSB7VkIN2yNWHqzUxX9/u2RVxhrGj43LCSAAljNatAcCII4AsNvJf2+Rs5q81yVZ5mzTxOa2+xxZsPgbq19qa/CC/T9YYCzfCL4wkC1a9MoE4uj7knZdwJ636ieAAPD5EAEQQwD8UNJjfK78WeucxbxL3ynGtLqPu0++AzZYXWxJ0ca+d065/WKhsTwp5SAS9mWPuLQrX1P4yvqwrzz2SmgfXcUigADw+QMBkC7XdM1Z35T0QJ8b/7d1VyNytftfy9L89d6ExaHtmK+UtG2aYazpxdZ3bmuLd/+z11gQ45+dMy3nbCLgATGGiBWJCSAAfEARAP3n3mnutsXrXi/JLghPtk07j/I72cAk/WqBQrma43NSDmZVX79VaFwPXWVD6T9/bfL919UZOXw7k3grzW3sx0cA+CIAAdC/ALAHwp3cZF3/Lq5dXbAi/N1lDLPabCbJvrsuNaZzMn5vfhtJ3ykwtnfPAt3za3ZB5/E9jf1zkjbveXwcLi8BBICPLwKg35pia8fs5nPZ4talCuS84y62tvm7r+ipSMwaxw2Sdm9uaqc9jyowPlsYaIdO1qZpZB992YSYxTzXax9qu7JWmqHSSyYCCAAfWARAP/nnPEn7+1zVrHWuxNm132ZWL97r/oUf9vP/FpuX5F27+C3nR+Dz/PeaJNa378SuzreLX+bZlfP1P29vLi2CEkAA+ByDAMiXgy5a+XRz7z4XKcuZOLv07QvPn7X+l0KFwsZ7SZflGDsO+k0FxmkXNva9MNBvFFoFcXX82uJCbPUTQAD4fIgASCcA7Lv9T0l6sSQ7aS2yrU5yEf72Qnh6gaK4mptdnNbXZksL22IQq4/fx98v6GmA9n2/PdmqjzEtO4ZN1j592xPi0R0GAeBzOQKgfT6yr4TtxPDcyRLk758s2Wsruh4maRufK9K0Xpb4+n7fMyr7WPy/ChaMf/IY37GtBVTfPrKP4ls9carD2O4i6WMFxraI5TWS9ukwFprEIYAA8PkimgCwC4KPCPZzqKTHSXrIyuqitlBZ2G1RwivxngfUWwoWDCsOO3mM79jWlr8t4acDO9rbpJlNnP8oNK5lLH8gyZZkZquTAALA57doAmBP33BovSzh9f1+V49YINjHtH3bOz3eS7sanqCdfbQ0taOv3/+awO5ZXRw8+U7MxFRf4+hynK9L2nqW8bwWngACwOciBICPX7jWXRJgzjZdAG0s6fyCRcOu3uz8NKYuA17Xxi6Sy+mTeX3bExZTbebDNxQax7zxLXr905Mrdm2tCba6CCAAfP5CAPj4hWu9KMmVeK8LIHveewlbp8d8ZBejE7ax4vmfBRicmmgM9hzrjxewf+q/rr9Py7jYUyK0dLOOAAJgHZCW/yIAWgKLvnvX5JerXVte20v6UcHiYUs0RtjsNrVcPpnXr13deg/n4PcoJF7mjant67Y2N1s9BBAAPl8hAHz8wrVum/By798WkJ2F5bZpXv/20JgQt3JI2rKQEHptW4et2v9Zkq4t6L95fm37+vNXjYk/YxNAAPj8gwDw8QvXum2yy71/G0D2POTc9izq324/ibTZCoSL7M3x3lWS7tASgj3L4KQCtuYYv/VpazE8sSUDdi9DAAHg444A8PEL1zpXUuzab1NAt5P0rYJFxCZCtPs771VoYaAjmzpt5b5Yu4Oga3xEbfcTSfZ1BltsAggAn38QAD5+4VpHS6hNAf1pwSJi330/uKmhPe9X4isRE2JNFgbaS9J3C/otd6x/X5KJMLa4BBAAPt8gAHz8wrXOnRTb9t8E0AMkXV+wkES+8MtWqmvLPMX+T1niuMMLP6ApxRib9GG3hNpTC9liEkAA+PyCAPDxC9e6SVLrc58mgEreMvadDt95NxlTyn0+W0AE2EMtZm23lfQXBezpM2bXH+sTkmzcbPEIIAB8PkEA+PiFa70+eZX+fxmgZxQuJsvOdJfZ38f7v16I0fplOe8uKVrC6Cu+39PnIz37CKqBHAMB4HNktPm8Puf4RjfC1n0lxKbHWeQC+2j1skLFzez/x0XGBXrPFgYqsZb+365isO/kAR3fK+irpvGWc7/jVvHgzxgEEAA+PyAAfPzCtc6ZALv0vQhQyY+S7Srvmi7welGB4msXR/7cRKT9buFrNLrEXa42du0DWxwCCACfLxAAPn7hWudKfF37nQdo78IP+3nJPMOCvr6FpB8WEAElPnnoGmt9tDNR9OigMTJGsxAAPq8jAHz8wrXuIwm2OcYsQPaR9gUFitnU7q8UftjPLCZNXrO7FaZj4Hc5FrZU9e5NHMY+2QkgAHyIEQA+fuFaRysMswD9XuFC9ouzjKrgNfs43s5Ao/l4jPbY+gfe5yZUEHLhTUQA+FyEAPDxC9c6WjJeD2gHSVcXLGLvWm9QZf+/tyC7aLFV2p4vSbKvZtjKEUAA+NgjAHz8wrUunRTXH389oPcXLGCXS7JH1da82ep76xnzfzkm/yzJnoXAVoYAAsDHHQHg4xeudbRisBrQ4woXr99ZbUzFf3+6MMeSMWYrRtoTCyM9dfCdFcdS7aYjAHweRAD4+IVrXTI5zzr2FJA97OfbBQuXFc0NpsZU/vupBTnO8nFfr10qyZZGtu1phe8iWT/ml6/Yxa9+CSAAfLwRAD5+4VqvT0yl/58COr5g0bIL53adGjKA3/agnpJPTiwRUybg7rbOdy8uGFOzGDxznX38m58AAsDHGAHg4xeu9azEVPI1A/TAwgvJ/Fk4L/kN+r/Bil/OGHvrgts2TwrEwb6e+GW/a+mhBQEEQAtYM3ZFAMyAUvNLORNxl77tY/ezCybp/5x8Z3z7mh06x/Y7SLqqINcusdC2zXWTxw0vu27DPg35cCAO5pMHzfEZL6cngADwMUUA+PiFa902yebe/1mFk/OTw3konUH2yUZu/5Xq/xJJTR8Msrmk8wKxMNFpD05iy08AAeBjjADw8QvXulTCnnfcHxRMzHZmOOTtngNdGOiTkrZt6Tjbv+RFpuvj//wKHjPdEnHI3REAPrcgAHz8wrVen4jG+r897MdWzhv6dmpBgZUjtk503Ff/AElXBOLxT5Js2Wu2fAQQAD62CAAfv3CtcyTlGvv8w3CeyWPQwwIVPE+c2H399nWRd9tPkl074LElZVt74iVbPgIIAB9bBICPX7jWKZNXrX192XEWGc6hDQz610AFr0vMfEfSHg3G2XSX3wrGo7YnTzblHGE/BIDPCwgAH79wrbsk4KG1eUQ4r+Q16MBgBa9NPH1C0jYZ8BwdiMlNkn4zwxjpUkIA+KIAAeDjF651m+Q7xH3fEc4j+Q3aUNI3AxW8pnH1xsyf1PxlICb2tUStT6HMH8Hdj4AA6M7OWiIAfPzCtW6afIe4339L2jqcR/ox6PmBit2y2LpmspLhb/eAxS7AswvxltnT1/t2geLP9zDuMR0CAeDzNgLAxy9c676SWcTjHBrOG/0ZZIsdXRmo2M2Lj4snC/f8Qn9YZAsm2S158+zp+3VbwjnHVx49Ig11KASAzx0IAB+/cK37TmhRjmcXwg3lYT9dg+rVgQrdrLj4l0Kf0NiiPLY4zyybSrx2riRbvIjNTwAB4GOIAPDxC9e6REIrfcyfsvzqzXG4gyRjUdofs45/QuF74m153khLJ/+DpP0l7SbpHpLsaZls7QkgANozW90CAbCaxgD+npV8h/7aawbgt1RD+JtgAsAWZLLb8iJsVnDtgT1R54NdG2G3RP6bpI9NHqL13smKiFbgXinphSvXTTxW0l6S7itpK0l2AeiYNwSAz/sIAB+/cK2jJrdcdtl3ynyc+r9haN+v52Ldtl9bmtfOcCNtzwjEpy3PWfvfKMkufv13SfbIZFv++p2SXjf5NMjWHzhC0lMlPXLlkdjbS9oskkOctiAAfADPCTYfUq4H4iNTaetZSWLIrz2xUj/lNNvurS/t83+WdJecg3T0fWwAPqX98+PJyosmnr8g6czJ3Qm2pLQtw/wnk4tJj5T0dEmPlmQrTd5b0p2CXmODAOg+EeyaqWgXDu/UfTi0NAKlE0ufx/8gLp9JwERRn35Yf6zXTgqJPaY38mbrRay3m/8XM7lB0mWSLpJkF93a/Hv75HHb5m9betse3WyLUtl6B3bNxd0k3TZzECAAugO+X8A5MKRPp7p7xtFyLEnMzmDsaXhstyZg3wt/vcDkNp8cdGtzQr5ym5Uz37HMl5LjvHrlSY32yObTJb178unQmyafKLxckq1fYaskHiDpoZLuJWmLFhGDAGgBa92uxxTIEYvi0NbJYHMSWAR4SO+92Mlp6M2f2/PktpUId60MqhWaL/bMaUhzMOdY7G6W70u6UNLZkt4v6a8md0vYra42923NjydJ+lAw/9k1FzVsOwd7aJbFkj3Dhc1JIOekjNL3lzIvIet0QYjmdmHkd3tKjnZWd+cQo25vhN06eUlPnKLMH+xY/FWHh08NAsCKvwkrzzhztLU8wuYkkMMxkfq0B6vs62Q0luZ2IVdu3x1fwff9y/z9YEk/6oFVbl/Qf/54X8Y4qgCwrwUfIMk+9o/0uOzVPMf4HJdluan1+6uBDvHvt7UmMt4GdpVvrkcF2/e6vzYgtPYddNRFlIY4j4c6Jltx0paejvRzgSSbr9GZv2pA+aTYUKI72WPfDwLfWlbM4UsObB9x2/34Hu7r29oFhnaV99C2wxJzWs+N/9PGITyHxdOuW2JzEhjypDjEyWasze3e2lTfc39k5Z7wobK0VfeGPIcYG/6NGgO2Uiebk0BU53rt+mTQhUic7uqtud1e9XFHcbtW0tEjWHrWvjY52cHJG+e0p0CPMQbsOR2b9JYNB3ygIQaPfTdrV66y+QhYcbOP2do+FOesyb3btmjIWDZLRDbmIc4lxoRfI8bAe8aSXHKPM6JzvTbZvb9s6QjYk+fsAT122828h+P8h6Q/k7RnusNW1dOWQW+V8s4l2iMAIsbA06rKDoGNjehcj01WiHjYT76As9uD7ELBh0/uGPjlyRPoHjjw7/jbkLSVJi/lkwA+CSEGssaAnYS0Wf2xzRwe3b6eYhux7eNH50EGHInAQyq5hSri3MUmPm1oEgMsAJQw4zUBXss+tvwnGwRKE3js5AJIexBOLfMGO/FVTTHwnNITfEjHr8nxi2y1hSvuMSTHMJaqCTwbAYAAIgayxMD2VWeGYMYvKqo1vff7wbhiDgTsYtSa5hC24q/oMXAGaSUtgegOb2KfPaFt47RY6A0CbgJ2G+WpiABEEDGQJAbsuS67u2clHawh0KTARt7HgmKfNSPiHwjEIXDblcfTRp5D2MaZfw0xYAtusSUmUIPjF9n4l4l50B0EUhOwRx/bs8sXxTHvwYcYmB8DtrKo3WbLlphAzUF3maStEvOgOwjkILC1pC8gAhBBxECnGHhNjklJn/MVVw3C4Jk4EAIVEbDVAu1W1RrmFjbipygxcDmLjeXLclGc3NaOT/Cwn3xBQc9ZCTxB0jcQAgghYqBRDLwo62wceedtC2+E/W0pSFuClg0CtRKwOwTscaanSPq2JLuYNcLcwgb8ECkGviTJLqRly0QgkrOb2nJcJhZ0C4FSBG4vaTdJj5J00MpTGF8m6Q0rIuGfJJ0r6Zsdns7YdF6xH8U/Ugz8t6SdSk3IsRw3ksOb2GJnS/Z0OjYIjJnAbSRtI+kBkvaV9ERJh0j6A0nHS7K7Y/5ekn1VZncgfE+SPSa7yRxjHziVjgGL1UeOeYL3NfbSjm57fFtnnQ0CEOhGwJ6idi9JD5V0gKTflPT8yfU0L5f0JknvXnns83krX038CNGAaCoQA7/bLbxp1ZZA2wJccn87o2GDAAT6JbCJpO0k7Szp/0h6sqTDJB01efS23Z71tsnXFx+YPB76XyVdJMluz+VhSHyK0LVWvKXf8B730bo6qe929rAfew49GwQgEJ+AXeR4J0n3lvQwSY+e3PnwdElHSvoTSSeuLJN85sr6CBdL+nGBM82+8xjHWyyMPi7Jvt5i64lALQHJrSA9BQSHgUBBAptKurukXSTtJ+kpkg6fXL/wEkmvk/ROSR+W9GlJ/y7JLhS7EeEwiK8pvj75GuouBWNvlIeuQQD8Gw/7GWVsMmgINCGw4cqKoPeVtJcku07otyW9cHI2+UpJb57cNvxeSR+T9F+IhZBiwS5WtdUy2XomEF0A2P3RNqnZIAABCHgJmBiInvPGZt9f8LG/N6y7t48ebG/tPjRaQgACEFhDAAEQRwDZhaIvWOMd/umdQGQBYB/X2ZPU2CAAAQikIIAAiCEArlhZ9CqFT+nDQSCyALDv8dggAAEIpCKAACgvAOxWUbtegy0AgagC4KwAbDABAhAYFgEEQDkBYGf9tlKl3enBFoRARAFgD/v5+SB8MAMCEBgOAQRA/081q3sAAAilSURBVALgmpUFo2xdCLZgBCIKgFcFY4Q5EIDAMAggAPoTALY+wztYwC32xIkoAD4jyb4C4AcGxAAxkDIGvsttgNlvg7TC/yFJD4pd+rDOCEQUANiEX4gBYoAYqCcGrl1ZofHQyTLPd6W01kOASVbPJMNX+IoYIAaixMCVkk6ZPG76qZJuX0/Jw9LVBKIEE3aQ2IgBYoAYiBMDtgrr9yWdP3mg00dWnvr4isnTHu1Rvfuzet/qMlrv30y4OBMOX+ALYmBcMWAF9cHBfnaVtD3PX6m3qLexnIQzroSDv/E3MRAnBo5ok6zZFwKpCZAM4iQDfIEviIFxxQACIHVFo79WBEg440o4+Bt/EwNxYgAB0KpcsXNqAiSDOMkAX+ALYmBcMYAASF3R6K8VARLOuBIO/sbfxECcGEAAtCpX7JyaAMkgTjLAF/iCGBhXDCAAUlc0+mtFgIQzroSDv/E3MRAnBhAArcoVO6cmQDKIkwzwBb4gBsYVAwiA1BWN/loRIOGMK+Hgb/xNDMSJAQRAq3LFzqkJkAziJAN8gS+IgXHFAAIgdUWjv1YESDjjSjj4G38TA3FiAAHQqlyxc2oCJIM4yQBf4AtiYFwxgABIXdHorxUBEs64Eg7+xt/EQJwYQAC0KlfsnJoAySBOMsAX+IIYGFcMIABSVzT6a0WAhDOuhIO/8TcxECcGEACtyhU7pyZAMoiTDPAFviAGxhUDCIDUFY3+WhEg4Ywr4eBv/E0MxIkBBECrcsXOqQmQDOIkA3yBL4iBccUAAiB1RaO/VgRIOONKOPgbfxMDcWIAAdCqXLFzagIkgzjJAF/gC2JgXDGAAEhd0eivFQESzrgSDv7G38RAnBhAALQqV+ycmgDJIE4ywBf4ghgYVwwgAFJXNPprRSBawvlFSfzAgBggBnLEwAcVS2AgAFqVK3ZOTSCaAEg9PvqDAAQgMCXwZgTAFAW/IRBLDZsYYYMABCCQiwACIBdZ+q2SAJ8AVOk2jIYABDoQQAB0gEaT4RJAAAzXt4wMAhBYSwABsJYH/42cAAJg5AHA8CEwIgIIgBE5m6EuJ4AAWM6IPSAAgWEQQAAMw4+MIhEBBEAikHQDAQiEJ4AACO8iDOyTAAKgT9ocCwIQKEkAAVCSPscORwABEM4lGAQBCGQigADIBJZu6ySAAKjTb1gNAQi0J4AAaM+MFgMmgAAYsHMZGgQgsIYAAmANDv4ZOwEEwNgjgPFDYDwEEADj8TUjbUAAAdAAErtAAAKDIIAAGIQbGUQqAjcEezjGJqkGRj8QgAAE1hF4W7B8d+g6+/gXAr0SuCTYhNi919FzMAhAYEwEzgmW7x43JviMNR6Bc4NNiMPiIcIiCEBgAAQ2lnRtsHz3kAFwZQgVE/hAsAlxniSbqGwQgAAEUhJ4drBcZ9dfbZdygPQFgbYETgo4KY5tOwj2hwAEILCAwE6Srg6W6+z6qw0X2MxbEMhO4KXBJoWpYpsYJgL4JCC7+zkABAZP4OGSvhEwz9n1V2wQKErgkIATY3pron0dYNcE2IWB3B1QNEw4OASqIrC9pCdIOlHSjUFznF1/xQaBogQOCDo5piKA3xIMYEAMDC8G3l8083NwCEjaBQFAgSUGiAFioPcYsE8n2CBQlMCmAS+O4WxneGc7+BSfEgNrY4BbnouWPg4+JXAa6r939U8yXJsM4QGPMcXATZK2mSZgfkOgJIGDEQAIAGKAGCAGeouBT5VM+BwbAqsJbLVy692YFDhj5YyTGCAGSsXAi1cnYP6GQGkCZ6H+e1P/pZIOx6XgEQMxYuD+pRM+x4fAagJHIgAQAMQAMUAMZI+Bi1YnXv6GQAQCOzLxs098zr5inH3hB/xQMgaOj5DwsQEC6wlcgAhABBADxAAxkDUG9l6fePkfAhEIHM7EzzrxS551cGzOeomB8jFgy5tvECHZYwME1hOwh+/Y91MkChgQA8QAMZA+BvZfn3T5HwKRCDwZAYAAIgaIAWIgeQycHinRYwsE5hGwRSpQ/zAgBogBYiBNDNjKf7vNS7i8DoFIBPZFACCAiAFigBhIFgMnR0rw2AKBZQQ+yORPNvk5i0pzFgVHONYYA9dJstus2SBQDYEHsjwwAgARSAwQA+4YeH01WR9DIbCKwHFMfvfkr/GMBZs50yYG0sTANyXdeVVO5U8IVENgQ0kfQgQgAogBYoAYaB0DP5K0czXZHkMhMIPAHSR9kcnfevJzBpXmDAqOcKwxBm6U9PgZ+ZSXIFAdAbuA5TJEACKAGCAGiIFGMXBUdVkegyGwgIDdGng9k7/R5K/xjAWbOdMmBtLEALf8LSgkvFUvgUMQAAgAYoAYIAbmxsBnJW1ab4rHcggsJvAKJv/cyc8ZVJozKDjCscYY+Kqk7RanT96FQP0EniXJFreocZJiM34jBoiB1DHwUUlb1p/aGQEEmhHYR9L3EQGIIGKAGBh5DNhCPxs1S5vsBYHhELinpPNHPvlTn0nQH2enxEAdMWCfgj5zOOmckUCgPYHNJb0PEcBZIDFADIwoBr4nae/26ZIWEBgegQ0mQzpW0k9HlAA4S6vjLA0/4afUMfAZSTsML40zIgj4CNxnsvTl3yECOBMkBoiBAcaAret/kCQ74WGDAATmENhT0tkDTACpzyToj7NTYiB+DPxA0pGSNpmT73gZAhCYQeAJkr6CEOBskBggBiqMgZ9MFvWxJ6JuMSO38RIEINCAgN0e8zuSLqgwAXB2Fv/sDB/ho9QxcPlkQZ+3SNq+QX5jFwhAoCEBe6iQfZR2lqQbEAScFRIDxECQGPjWZCGfEyTtJ2njhvmM3SAAgY4EtpJ0sKTTJF0dJAmkPpOgP85OiYG4MfB5ScdI2rVjDqMZBCCQgIA9PGMXSQdIsgcOvVTSSZI+IOlcSZfwiQFniohEYqBFDFwl6UJJZ0p618p3+c+TdKCkvSRtmyBv0QUEqibw/wHqzc1h8hhEiAAAAABJRU5ErkJggg==;" vertex="1" parent="hlimM6l5dyAwngFtbMl4-31">
          <mxGeometry x="23.5" y="19" width="93" height="93" as="geometry" />
        </mxCell>
        <mxCell id="hlimM6l5dyAwngFtbMl4-28" value="" style="rounded=0;whiteSpace=wrap;html=1;fillColor=none;" vertex="1" parent="hlimM6l5dyAwngFtbMl4-31">
          <mxGeometry width="130" height="130" as="geometry" />
        </mxCell>
        <mxCell id="hlimM6l5dyAwngFtbMl4-29" value="" style="rounded=0;whiteSpace=wrap;html=1;fillColor=none;strokeColor=#FF3333;" vertex="1" parent="hlimM6l5dyAwngFtbMl4-31">
          <mxGeometry x="55" y="58.75" width="20" height="17.5" as="geometry" />
        </mxCell>
        <mxCell id="hlimM6l5dyAwngFtbMl4-30" value="" style="rounded=0;whiteSpace=wrap;html=1;fillColor=none;strokeColor=#FF3333;" vertex="1" parent="hlimM6l5dyAwngFtbMl4-31">
          <mxGeometry x="30.5" y="70" width="50.5" height="26" as="geometry" />
        </mxCell>
        <mxCell id="hlimM6l5dyAwngFtbMl4-32" value="" style="endArrow=classic;html=1;rounded=0;" edge="1" parent="1">
          <mxGeometry width="50" height="50" relative="1" as="geometry">
            <mxPoint x="729.58" y="250" as="sourcePoint" />
            <mxPoint x="729.58" y="290" as="targetPoint" />
          </mxGeometry>
        </mxCell>
        <mxCell id="hlimM6l5dyAwngFtbMl4-33" value="" style="endArrow=classic;html=1;rounded=0;entryX=0.568;entryY=0;entryDx=0;entryDy=0;entryPerimeter=0;" edge="1" parent="1">
          <mxGeometry width="50" height="50" relative="1" as="geometry">
            <mxPoint x="730" y="460" as="sourcePoint" />
            <mxPoint x="729.5800000000002" y="497.75" as="targetPoint" />
          </mxGeometry>
        </mxCell>
      </root>
    </mxGraphModel>
  </diagram>
</mxfile>
